<svg xmlns="http://www.w3.org/2000/svg" version="1.0" width="177.000000pt" height="221.000000pt" viewBox="0 0 177.000000 221.000000" preserveAspectRatio="xMidYMid meet">

<g transform="translate(0.000000,221.000000) scale(0.100000,-0.100000)" fill="#3eb8d7" stroke="none">
<path d="M765 1748 c-9 -34 29 -131 79 -207 26 -38 94 -113 161 -175 283 -264 401 -461 336 -559 -15 -24 -119 -97 -137 -97 -12 0 -142 -89 -164 -111 -38 -41 -60 -83 -60 -117 0 -49 29 -38 57 19 26 55 67 91 171 149 166 94 202 134 202 225 0 120 -81 239 -346 503 -84 83 -166 171 -182 195 -36 52 -62 112 -62 142 0 36 -11 55 -31 55 -11 0 -21 -9 -24 -22z" fill="#3eb8d7"/>
<path d="M852 1263 c2 -12 13 -18 33 -18 20 0 31 6 33 18 3 14 -4 17 -33 17 -29 0 -36 -3 -33 -17z" fill="#3eb8d7"/>
<path d="M868 1072 c-26 -5 -22 -31 6 -38 28 -7 46 1 46 20 0 15 -26 24 -52 18z" fill="#3eb8d7"/>
<path d="M1040 1056 c0 -15 45 -30 60 -21 24 15 9 35 -25 35 -23 0 -35 -5 -35 -14z" fill="#3eb8d7"/>
<path d="M630 914 c-6 -14 -13 -49 -16 -77 -17 -156 180 -269 323 -185 17 11 52 50 76 86 68 102 85 114 159 116 56 1 63 3 66 22 2 15 -4 23 -20 28 -82 22 -156 -10 -213 -90 -67 -95 -95 -123 -133 -133 -74 -20 -167 22 -197 89 -16 36 -17 46 -5 94 7 29 10 59 6 65 -12 19 -36 12 -46 -15z" fill="#3eb8d7"/>
<path d="M777 913 c-12 -11 -8 -31 7 -36 21 -8 56 3 56 18 0 20 -48 34 -63 18z" fill="#3eb8d7"/>
<path d="M1202 578 c4 -31 53 -34 53 -3 0 15 -8 21 -28 23 -25 3 -28 0 -25 -20z" fill="#3eb8d7"/>
<path d="M1147 503 c-16 -16 -5 -33 21 -33 34 0 43 7 35 26 -5 14 -44 19 -56 7z" fill="#3eb8d7"/>
<path d="M1310 480 c0 -24 41 -28 59 -7 14 18 4 27 -31 27 -21 0 -28 -5 -28 -20z" fill="#3eb8d7"/>
<path d="M1414 395 c-4 -9 -2 -21 4 -27 16 -16 47 -5 47 17 0 26 -42 34 -51 10z" fill="#3eb8d7"/>
<path d="M1146 385 c-6 -18 13 -29 41 -23 28 5 22 33 -8 36 -17 2 -29 -3 -33 -13z" fill="#3eb8d7"/>
<path d="M1264 379 c-3 -6 0 -15 7 -20 21 -14 53 -6 57 14 3 13 -3 17 -27 17 -16 0 -33 -5 -37 -11z" fill="#3eb8d7"/>
<path d="M1144 285 c-9 -22 9 -37 37 -33 16 2 24 10 24 23 0 26 -52 35 -61 10z" fill="#3eb8d7"/>
<path d="M1304 285 c-8 -21 4 -35 30 -35 29 0 35 6 29 31 -6 23 -51 26 -59 4z" fill="#3eb8d7"/>
<path d="M1481 286 c-18 -21 -5 -36 30 -36 26 0 30 3 27 23 -4 27 -39 35 -57 13z" fill="#3eb8d7"/>
</g>
</svg>