<?xml version="1.0" encoding="utf-8"?>
<!-- Generator: Adobe Illustrator 22.1.0, SVG Export Plug-In . SVG Version: 6.00 Build 0)  -->
<svg version="1.1" id="speech-therapist" xmlns="http://www.w3.org/2000/svg" xmlns:xlink="http://www.w3.org/1999/xlink" x="0px"
	 y="0px" viewBox="0 0 90 90" width="90" height="90" xml:space="preserve">
<style type="text/css">.fill-stroke{fill:none;stroke:url(#SVGID_1_);stroke-miterlimit:10;}</style><linearGradient id="SVGID_1_" gradientUnits="userSpaceOnUse" x1="59.6096" y1="64.8915" x2="24.952" y2="30.2339"><stop  offset="0" style="stop-color:#00C9FF"/><stop  offset="1" style="stop-color:#0382F3"/></linearGradient><g class="fill-stroke">
	<path d="M14.8,38.1c2.9,2.6,6.4,6.2,9.7,7.9c2.2,1.2,4.5,2.2,6.9,2.9c2.3,0.7,4.5,1.1,6.9,1.4c4,0.5,8,0.5,12,0.2
		c2.7-0.2,5.4-0.7,8-1.5c3.3-1,6.5-2.3,9.5-4.3c2.7-1.7,7.4-5.8,7.7-6c1-1,1.3-0.3,0.7,0.6c-1.9,2.6-2.5,3.6-4.1,5.8
		c-2.5,3.6-5.2,6.8-8.4,9.4c-3,2.5-6.2,4.4-9.8,5.6c-2.4,0.8-4.8,1.2-7.2,1.4c-2.8,0.2-5.6-0.1-8.4-0.7c-2.9-0.7-5.7-1.9-8.4-3.5
		c-3.4-2.2-6.4-5-9.2-8.3c-2.3-2.8-4.9-7.1-6.8-10.2C13.5,37.8,14.1,37.5,14.8,38.1z"/>
	<path d="M14.2,35.8c2.7-1.1,4.6-1.9,7.3-3c2.5-1,5-2.1,7.5-3c1.8-0.7,3.7-1.1,5.5-1.2c1.7-0.1,3.5,0.3,5.1,1
		c2.3,1,4.7,1.1,7.1,0.9c1.8-0.2,3.5-1,5.2-1.5c1.6-0.5,3.3-0.5,4.9-0.3c2.7,0.4,5.4,1.4,8.1,2.6c2.6,1.1,8.6,3.9,10.1,4.5
		c1.4,0.7,2.1,0.9,0.9,1.2c-0.3,0.1-1.1,0.2-1.3,0.3c-0.8,0.2-1.6,0.3-2.5,0.5c-3.1,0.4-6.2,0.7-9.3,1c-3,0.4-6.1,0.7-9.1,1.2
		c-2.4,0.3-4.7,0.8-7.1,1.2c-1.7,0.3-3.3,0.1-4.9-0.2c-2.3-0.4-4.6-0.9-6.9-1.2c-3.8-0.5-7.4-0.9-11.2-1.4c-3-0.4-5.5-0.8-8.8-1.4
		C14.1,36.7,13.2,36.2,14.2,35.8z"/>
</g>
</svg>
