<svg width="644" height="654" viewBox="0 0 644 654" fill="none" xmlns="http://www.w3.org/2000/svg">
<mask id="path-1-inside-1_4_734" fill="white">
<path d="M308.2 2.46662C251.267 9.26662 188.733 34.0666 152.467 63.9333C139.8 74.4666 138.867 75.4 131.133 85C121.667 96.6 118.333 104.2 104.6 146.467C93.9333 179 84.3333 198.467 67 222.733C56.8667 236.867 52.3333 242.333 44.3333 249.533C41.5333 252.2 36.2 257 32.6 260.333C19.5333 272.333 9.00001 291.667 3.66667 313.667C-0.199994 329.267 -0.599994 357.667 2.86667 373.667C8.46667 399.667 22.8667 429.133 42.2 454.333C45.5333 458.733 48.6 462.6 49 463C49.4 463.4 53.2667 467.8 57.5333 473C61.8 478.067 72.7333 489.933 81.9333 499.4C97.8 515.4 99 516.333 103.933 516.333C111.133 516.333 117 510.6 117 503.667C117 499.4 115.667 497.4 105.933 487.267C67.5333 446.733 54.3333 429.8 41.4 404.333C29.6667 380.867 25.4 361.933 26.7333 337.8C27.6667 321.667 30.0667 311.4 36.0667 299C39.4 291.933 43.8 286.733 59 271.667C77.8 253 87 241.267 101.667 217.667C114.2 197.4 122.333 177.933 134.333 139.533C137.8 128.6 142.6 115.667 145 110.867C159.133 83.9333 209.133 53.4 265.667 37.2666C300.6 27.2666 350.333 24.3333 382.867 30.2C424.6 37.9333 456.067 58.3333 477.933 91.9333C508.733 139.133 518.333 201.4 506.333 274.333C503 294.467 499.133 310.733 497.267 312.6C496.2 313.667 492.733 312.733 485.267 309.267C479.533 306.6 473.133 304.067 471.267 303.667C469.267 303.133 467.4 302.2 467 301.667C466.6 301 467.667 293.4 469.267 284.733C471.8 271.267 472.2 264.467 472.333 237C472.333 208.467 471.933 203.4 469.133 189.667C459.4 142.333 437.133 107 402.6 84.3333C388.067 74.6 381.667 71.9333 376.333 72.8666C371.133 73.9333 366.333 79.5333 366.333 84.7333C366.333 91.8 368.6 94.3333 381.133 101.667C415.133 121.667 436.467 154.733 444.333 199.667C448.733 224.2 446.867 274.467 440.867 293.133L439.533 297.267L424.6 298.067C405.533 299.133 391.667 302.733 375 311C344.067 326.2 321.4 350.867 309.133 383C302.733 399.533 300.6 412.067 300.733 434.2V454.067L294.333 453.267C276.6 451.133 252.467 434.867 234.867 413C204.067 374.867 179.933 311.4 175 254.867L174.067 244.733L178.333 241.267C188.867 232.333 190.867 231.533 244.333 216.467C311.933 197.4 323.8 192.2 343.133 173C359.4 156.867 369.267 129.8 363.533 117.133C361.267 112.2 354.2 108.867 349 110.467C342.867 112.2 339.933 116.867 338.467 127.133C337.8 131.933 335.933 138.467 334.333 141.667C327.133 155.667 309.133 169.267 288.333 176.2C275.267 180.467 212.333 198.867 198.333 202.333C183.133 206.067 168.467 214.2 158.467 224.067C134.6 247.667 122.6 281 115 344.333C113.667 356.067 113.933 369.133 115.8 371.933C120.867 380.067 134.733 378.867 138.067 370.067C138.733 368.067 140.067 358.867 141 349.667C143.533 322.733 149.267 291 151.8 291C152.467 291 153.267 292.333 153.533 293.933C158.733 320.867 167.4 348.467 177.933 371.933C189 396.467 199.133 412.867 217.533 435.667C219.8 438.6 219.8 439.533 217.8 464.467C216.6 478.733 215.267 492.733 214.867 495.667C213.133 507 205.8 516.467 194.867 521.533C190.067 523.933 186.467 524.333 173.4 524.333C110.333 524.333 59.5333 541.933 29.1333 574.333C19.9333 584.333 15.1333 591.933 10.7333 603.933C8.06667 611.267 7.66667 615 7.66667 629.8C7.66667 646.467 7.80001 647.267 11 650.333C15.4 654.867 23.4 654.867 28.6 650.467C32.2 647.4 32.3333 646.733 33.1333 630.733C34.0667 609.8 37.1333 602.733 50.8667 589C75.5333 564.6 115.8 551.4 167.267 550.867C196.733 550.6 208.2 547.133 222.333 534.067C235.933 521.533 240.2 510.467 242.467 481.267C243.4 470.467 244.733 461.667 245.4 461.667C246.067 461.667 249.533 463.4 252.867 465.4C267.133 474.067 287 480.333 300.467 480.333H308.733L313.533 490.333C323 510.467 335.933 526.2 353.667 539.4C369.4 551.133 381.667 556.867 402.333 562.467C414.867 565.8 445.933 565.933 460.333 562.467C509.8 551 548.467 511.133 559.8 460.467C563 445.8 563.267 419.133 560.2 404.733C555.4 381.4 545 360.333 529.133 341.933L520.067 331.533L522.467 319.533C534.6 260.733 537.267 205.933 530.2 163C526.067 138.067 517.533 110.333 508.467 92.6C486.333 49.1333 449.533 19.2666 403 6.99995C377.133 0.199954 340.733 -1.53338 308.2 2.46662ZM457.267 327C488.333 334.867 516.2 359.267 528.467 389.4C547.267 435.933 533.533 487.933 494.333 518.333C474.6 533.533 453.667 539.8 426.067 538.6C408.333 537.933 399 535.533 384.467 528.2C355.133 513.267 332.867 482.467 327.667 449.267C325.533 436.2 326.6 414.867 330.067 402.333C336.2 379.667 351.267 358.067 371.667 342.733C379.133 337.133 395 329.8 405.4 327C418.867 323.533 443.4 323.4 457.267 327Z"/>
</mask>
<path d="M308.2 2.46662C251.267 9.26662 188.733 34.0666 152.467 63.9333C139.8 74.4666 138.867 75.4 131.133 85C121.667 96.6 118.333 104.2 104.6 146.467C93.9333 179 84.3333 198.467 67 222.733C56.8667 236.867 52.3333 242.333 44.3333 249.533C41.5333 252.2 36.2 257 32.6 260.333C19.5333 272.333 9.00001 291.667 3.66667 313.667C-0.199994 329.267 -0.599994 357.667 2.86667 373.667C8.46667 399.667 22.8667 429.133 42.2 454.333C45.5333 458.733 48.6 462.6 49 463C49.4 463.4 53.2667 467.8 57.5333 473C61.8 478.067 72.7333 489.933 81.9333 499.4C97.8 515.4 99 516.333 103.933 516.333C111.133 516.333 117 510.6 117 503.667C117 499.4 115.667 497.4 105.933 487.267C67.5333 446.733 54.3333 429.8 41.4 404.333C29.6667 380.867 25.4 361.933 26.7333 337.8C27.6667 321.667 30.0667 311.4 36.0667 299C39.4 291.933 43.8 286.733 59 271.667C77.8 253 87 241.267 101.667 217.667C114.2 197.4 122.333 177.933 134.333 139.533C137.8 128.6 142.6 115.667 145 110.867C159.133 83.9333 209.133 53.4 265.667 37.2666C300.6 27.2666 350.333 24.3333 382.867 30.2C424.6 37.9333 456.067 58.3333 477.933 91.9333C508.733 139.133 518.333 201.4 506.333 274.333C503 294.467 499.133 310.733 497.267 312.6C496.2 313.667 492.733 312.733 485.267 309.267C479.533 306.6 473.133 304.067 471.267 303.667C469.267 303.133 467.4 302.2 467 301.667C466.6 301 467.667 293.4 469.267 284.733C471.8 271.267 472.2 264.467 472.333 237C472.333 208.467 471.933 203.4 469.133 189.667C459.4 142.333 437.133 107 402.6 84.3333C388.067 74.6 381.667 71.9333 376.333 72.8666C371.133 73.9333 366.333 79.5333 366.333 84.7333C366.333 91.8 368.6 94.3333 381.133 101.667C415.133 121.667 436.467 154.733 444.333 199.667C448.733 224.2 446.867 274.467 440.867 293.133L439.533 297.267L424.6 298.067C405.533 299.133 391.667 302.733 375 311C344.067 326.2 321.4 350.867 309.133 383C302.733 399.533 300.6 412.067 300.733 434.2V454.067L294.333 453.267C276.6 451.133 252.467 434.867 234.867 413C204.067 374.867 179.933 311.4 175 254.867L174.067 244.733L178.333 241.267C188.867 232.333 190.867 231.533 244.333 216.467C311.933 197.4 323.8 192.2 343.133 173C359.4 156.867 369.267 129.8 363.533 117.133C361.267 112.2 354.2 108.867 349 110.467C342.867 112.2 339.933 116.867 338.467 127.133C337.8 131.933 335.933 138.467 334.333 141.667C327.133 155.667 309.133 169.267 288.333 176.2C275.267 180.467 212.333 198.867 198.333 202.333C183.133 206.067 168.467 214.2 158.467 224.067C134.6 247.667 122.6 281 115 344.333C113.667 356.067 113.933 369.133 115.8 371.933C120.867 380.067 134.733 378.867 138.067 370.067C138.733 368.067 140.067 358.867 141 349.667C143.533 322.733 149.267 291 151.8 291C152.467 291 153.267 292.333 153.533 293.933C158.733 320.867 167.4 348.467 177.933 371.933C189 396.467 199.133 412.867 217.533 435.667C219.8 438.6 219.8 439.533 217.8 464.467C216.6 478.733 215.267 492.733 214.867 495.667C213.133 507 205.8 516.467 194.867 521.533C190.067 523.933 186.467 524.333 173.4 524.333C110.333 524.333 59.5333 541.933 29.1333 574.333C19.9333 584.333 15.1333 591.933 10.7333 603.933C8.06667 611.267 7.66667 615 7.66667 629.8C7.66667 646.467 7.80001 647.267 11 650.333C15.4 654.867 23.4 654.867 28.6 650.467C32.2 647.4 32.3333 646.733 33.1333 630.733C34.0667 609.8 37.1333 602.733 50.8667 589C75.5333 564.6 115.8 551.4 167.267 550.867C196.733 550.6 208.2 547.133 222.333 534.067C235.933 521.533 240.2 510.467 242.467 481.267C243.4 470.467 244.733 461.667 245.4 461.667C246.067 461.667 249.533 463.4 252.867 465.4C267.133 474.067 287 480.333 300.467 480.333H308.733L313.533 490.333C323 510.467 335.933 526.2 353.667 539.4C369.4 551.133 381.667 556.867 402.333 562.467C414.867 565.8 445.933 565.933 460.333 562.467C509.8 551 548.467 511.133 559.8 460.467C563 445.8 563.267 419.133 560.2 404.733C555.4 381.4 545 360.333 529.133 341.933L520.067 331.533L522.467 319.533C534.6 260.733 537.267 205.933 530.2 163C526.067 138.067 517.533 110.333 508.467 92.6C486.333 49.1333 449.533 19.2666 403 6.99995C377.133 0.199954 340.733 -1.53338 308.2 2.46662ZM457.267 327C488.333 334.867 516.2 359.267 528.467 389.4C547.267 435.933 533.533 487.933 494.333 518.333C474.6 533.533 453.667 539.8 426.067 538.6C408.333 537.933 399 535.533 384.467 528.2C355.133 513.267 332.867 482.467 327.667 449.267C325.533 436.2 326.6 414.867 330.067 402.333C336.2 379.667 351.267 358.067 371.667 342.733C379.133 337.133 395 329.8 405.4 327C418.867 323.533 443.4 323.4 457.267 327Z" fill="#00C9FF" stroke="white" stroke-width="16" mask="url(#path-1-inside-1_4_734)"/>
<path d="M361.518 440.211L361.508 440.219L361.497 440.227C355.768 444.424 352.991 447.198 351.81 449.404C350.893 451.118 350.803 452.725 352.014 455.566L352.024 455.59L352.034 455.615C352.682 457.195 354.175 458.794 356.154 459.866C358.15 460.946 360.107 461.209 361.473 460.859L361.473 460.859L361.486 460.855C363.567 460.329 367.141 458.374 371.896 454.876C376.51 451.482 381.831 446.944 387.315 441.747C398.304 431.333 409.691 418.523 417.148 407.434L417.15 407.431C425.194 395.496 432.161 383.429 436.898 373.612C439.27 368.695 441.044 364.424 442.12 361.065C442.659 359.383 442.997 358.01 443.161 356.948C443.243 356.42 443.274 356.014 443.276 355.715C443.278 355.443 443.255 355.318 443.253 355.304C443.252 355.302 443.252 355.302 443.253 355.304C441.516 348.357 433.109 346.389 429.032 350.62C428.382 351.388 426.959 353.576 425.071 356.872C423.215 360.111 421.089 364.101 419.124 368.095C404.092 398.835 384.912 422.837 361.518 440.211Z" fill="#00C9FF" stroke="white" stroke-width="8"/>
<path d="M591.533 553.8L591.537 553.803C599.877 560.074 605.994 564.779 610.322 568.296C614.531 571.715 617.361 574.254 618.824 576.144C624.006 582.766 623.258 591.451 617.586 597.795C615.91 599.68 614.251 601.288 612.004 602.236C609.809 603.161 607.483 603.267 605 603.267H604.95L604.9 603.265C602.165 603.197 599.7 603.002 597.25 601.738C594.951 600.552 593.011 598.593 590.725 596.11L590.718 596.103C587.794 592.913 578.208 582.528 569.291 573.079L569.271 573.058L569.251 573.036C561.959 565.081 553.109 555.476 547.635 549.536C546.507 548.312 545.523 547.243 544.725 546.377L544.719 546.37L544.713 546.364C543.823 545.389 542.998 544.483 542.231 543.642C539.959 541.148 538.201 539.219 536.788 537.723C535.36 536.214 534.437 535.318 533.822 534.795C533.793 534.817 533.762 534.839 533.73 534.863L533.714 534.875C533.492 535.041 533.226 535.239 532.935 535.448L532.877 535.489L532.819 535.528C531.216 536.597 527.256 540.27 523.993 543.531L520.774 546.896L526.048 552.527C526.049 552.529 526.05 552.53 526.052 552.531C542.243 569.758 549.887 578.062 557.4 586.223L558.076 586.957L558.082 586.964L558.088 586.97C572.862 603.155 580.974 611.571 587.322 616.048C590.379 618.204 592.914 619.355 595.503 620.006C598.155 620.673 601.059 620.867 605 620.867C610.678 620.867 615.013 620.172 618.739 618.71C622.444 617.256 625.795 614.948 629.372 611.372C639.821 600.922 642.773 584.72 636.71 571.762L636.698 571.735L636.686 571.708C635.03 568.029 633.462 565.496 630.764 562.653C627.95 559.685 623.86 556.329 616.985 551.122L616.971 551.111L616.957 551.101C612.542 547.695 605.178 542.025 596.611 535.429C587.066 528.08 576.027 519.581 565.906 511.779C563.493 509.954 561.141 508.281 559.308 507.079C558.907 506.817 558.541 506.583 558.213 506.38C558.001 506.603 557.769 506.854 557.519 507.131C556.07 508.735 554.217 511 552.343 513.52C550.477 516.03 548.937 518.364 547.951 520.078C547.928 520.117 547.906 520.156 547.884 520.195C549.017 521.08 550.525 522.254 552.304 523.633C556.127 526.599 561.186 530.509 566.426 534.549C576.918 542.639 588.093 551.22 591.533 553.8ZM533.117 534.27C533.117 534.27 533.119 534.271 533.122 534.273C533.119 534.271 533.117 534.27 533.117 534.27ZM556.668 505.51C556.596 505.481 556.609 505.492 556.69 505.52C556.681 505.516 556.673 505.513 556.668 505.51ZM546.981 521.996C546.981 521.996 546.982 521.993 546.984 521.987C546.982 521.993 546.981 521.996 546.981 521.996Z" fill="#00C9FF" stroke="white" stroke-width="8"/>
</svg>
