<?xml version="1.0" encoding="utf-8"?>
<!-- Generator: Adobe Illustrator 22.1.0, SVG Export Plug-In . SVG Version: 6.00 Build 0)  -->
<svg version="1.1" id="diagnostic" xmlns="http://www.w3.org/2000/svg" xmlns:xlink="http://www.w3.org/1999/xlink" x="0px" y="0px"
	 viewBox="0 0 90 90" width="90" height="90" xml:space="preserve">
<style type="text/css">.fill-stroke{fill:none;stroke:url(#SVGID_1_);stroke-miterlimit:10;}</style><linearGradient id="SVGID_1_" gradientUnits="userSpaceOnUse" x1="59.6096" y1="64.8915" x2="24.952" y2="30.2339"><stop  offset="0" style="stop-color:#00C9FF"/><stop  offset="1" style="stop-color:#0382F3"/></linearGradient><g class="fill-stroke">
	<path d="M74.8,70.2l0.5-0.3c1.4-0.7,2.2-2.1,2.2-3.6V27.7c0-2.2-1.8-4.1-4.1-4.1l0,0H16.6c-2.2,0-4.1,1.8-4.1,4.1l0,0v38.6
		c0,2.2,1.8,4.1,4.1,4.1H17L74.8,70.2z M17.4,41.8h9.9l3.3,4.8l5-10.7l5.8,14.3l3.3-8.7h7.5l3,5.4l4.8-11.1l5.6,14l3.6-8.4h3
		 M73.6,56.3h-57V28.6h57V56.3L73.6,56.3z"/>
	<circle cx="30.5" cy="64.6" r="2.1"/>
	<circle cx="20.8" cy="64.6" r="2.1"/>
	<path d="M54.2,62.4"/>
</g>
</svg>
