<?xml version="1.0" encoding="utf-8"?>
<!-- Generator: Adobe Illustrator 22.1.0, SVG Export Plug-In . SVG Version: 6.00 Build 0)  -->
<svg version="1.1" id="dna-research" xmlns="http://www.w3.org/2000/svg" xmlns:xlink="http://www.w3.org/1999/xlink" x="0px" y="0px"
	 viewBox="0 0 90 90" width="90" height="90" xml:space="preserve">
<style type="text/css">.fill-stroke{fill:none;stroke:url(#SVGID_1_);stroke-miterlimit:10;}</style><linearGradient id="SVGID_1_" gradientUnits="userSpaceOnUse" x1="59.6096" y1="64.8915" x2="24.952" y2="30.2339"><stop  offset="0" style="stop-color:#00C9FF"/><stop  offset="1" style="stop-color:#0382F3"/></linearGradient><g class="fill-stroke">
	<path d="M54.1,12.5C43.1,23.5,45,45,45,45s21.5,1.8,32.5-9.1"/>
	<path d="M35.9,77.5C46.9,66.5,45,45,45,45s-21.6-1.8-32.5,9.1"/>
	<line x1="46.9" y1="26.1" x2="63.6" y2="42.9"/>
	<line x1="45.5" y1="31.2" x2="58.5" y2="44.3"/>
	<line x1="51.9" y1="15.5" x2="74.3" y2="37.9"/>
	<line x1="49.3" y1="19.4" x2="70.4" y2="40.4"/>
	<line x1="42.9" y1="63.6" x2="26.1" y2="46.9"/>
	<line x1="44.3" y1="58.5" x2="31.2" y2="45.5"/>
	<line x1="37.9" y1="74.3" x2="15.5" y2="51.9"/>
	<line x1="40.4" y1="70.4" x2="19.4" y2="49.3"/>
</g>
</svg>
