<svg width="115" height="123" viewBox="0 0 115 123" fill="none" xmlns="http://www.w3.org/2000/svg">
<mask id="path-1-inside-1_2_725" fill="white">
<path d="M61.28 2.17002C61.288 1.58655 61.5274 1.03013 61.9456 0.623174C62.3638 0.21622 62.9265 -0.0079348 63.51 2.16979e-05C64.0935 0.00797819 64.6499 0.247394 65.0569 0.6656C65.4638 1.08381 65.688 1.64655 65.68 2.23002C65.6311 5.7519 65.9123 9.27062 66.52 12.74C66.9943 15.343 67.6628 17.9069 68.52 20.41C71.2034 18.6286 74.1684 17.3134 77.29 16.52C82.2766 15.2961 87.532 15.8185 92.18 18C96.8168 20.2335 100.834 23.5712 103.88 27.72C107.828 33.0123 110.653 39.0561 112.18 45.48C113.948 52.9497 114.622 60.6366 114.18 68.3C113.812 75.9574 112.33 83.5202 109.78 90.75C108.02 95.8291 105.538 100.628 102.41 105C99.6115 108.842 96.1303 112.137 92.14 114.72C91.54 115.1 90.88 115.5 90.14 115.9C81.9831 120.192 72.9617 122.585 63.75 122.9C53.75 123.16 44.3 120.46 39.2 112.56C38.98 112.23 38.76 111.85 38.53 111.44C37.93 110.36 37.43 109.32 36.94 108.28C35.62 105.49 34.26 102.63 31.27 100.14C30.2063 99.2368 28.9718 98.5566 27.64 98.14C26.2553 97.7352 24.8052 97.6028 23.37 97.75C18.84 98.17 16.37 100 14.05 101.75C12.2527 103.228 10.2031 104.37 8.00002 105.12C7.67364 105.227 7.33924 105.307 7.00002 105.36C6.66969 105.416 6.33506 105.443 6.00002 105.44C5.0665 105.461 4.14636 105.215 3.34755 104.732C2.54874 104.248 1.90437 103.547 1.49002 102.71C0.570231 100.844 0.0977423 98.7901 0.110023 96.71V96.63C0.110023 95.63 0.110023 95.22 0.110023 94.83C0.010023 91.11 -0.0299771 89.83 3.76002 86.44C4.28202 85.9326 4.82939 85.452 5.40002 85C6.00226 84.5557 6.62638 84.1419 7.27002 83.76C8.38329 83.104 9.53542 82.5162 10.72 82C11.88 81.48 13.16 81 14.55 80.47C24.14 77.01 29.79 78.92 35.13 80.73C38.32 81.81 41.38 82.85 45.13 82.34C48.88 81.83 51.95 79.11 54.3 75.54C57.1039 71.3479 58.5909 66.4134 58.57 61.37C58.2 54 55.39 47.92 52.25 41.14C48.34 32.69 44 23.26 42.78 8.92002L42.45 5.13002C42.4315 4.56292 42.6318 4.01042 43.0094 3.58694C43.3871 3.16346 43.9131 2.90146 44.4786 2.85519C45.0441 2.80892 45.6058 2.98193 46.0472 3.33839C46.4887 3.69485 46.7761 4.20745 46.85 4.77002L47.18 8.56002C48.31 22.13 52.5 31.18 56.18 39.25C59.5 46.43 62.48 52.87 62.89 61.11C62.935 67.0863 61.1939 72.9398 57.89 77.92C54.89 82.46 50.67 85.92 45.62 86.66C40.87 87.3 37.34 86.11 33.62 84.86C28.97 83.29 24.07 81.62 15.93 84.56C14.73 84.99 13.57 85.46 12.43 85.97C11.3993 86.4286 10.3974 86.9496 9.43002 87.53C8.89598 87.8356 8.37858 88.1694 7.88002 88.53C7.37002 88.9 6.88002 89.27 6.51002 89.63C4.23002 91.7 4.25002 92.43 4.31002 94.63C4.31002 95.33 4.31002 96.1 4.31002 96.56C4.27772 97.9361 4.55094 99.3022 5.11002 100.56C5.18714 100.723 5.31698 100.855 5.47851 100.935C5.64004 101.015 5.8238 101.038 6.00002 101H6.32002C6.46262 100.979 6.60313 100.945 6.74002 100.9C8.46975 100.268 10.0769 99.3409 11.49 98.16C14.29 96.09 17.28 93.88 23.04 93.35C25.033 93.1508 27.0458 93.3341 28.97 93.89C30.8695 94.4704 32.6316 95.4297 34.15 96.71C37.9 99.83 39.47 103.13 41 106.35C41.47 107.35 41.95 108.35 42.45 109.25C42.6 109.53 42.78 109.82 42.98 110.13C47.09 116.5 55.17 118.68 63.72 118.45C72.1956 118.154 80.495 115.949 88 112C88.59 111.67 89.17 111.32 89.74 111C93.2757 108.708 96.3602 105.786 98.84 102.38C101.708 98.3515 103.984 93.9334 105.6 89.26C107.999 82.4413 109.393 75.3101 109.74 68.09C110.17 60.8512 109.543 53.5883 107.88 46.53C106.499 40.7 103.94 35.2142 100.36 30.41C97.7569 26.8408 94.325 23.9581 90.36 22.01C86.5912 20.2336 82.3263 19.8064 78.28 20.8C74.8459 21.7141 71.6362 23.3241 68.85 25.53C68.658 25.6922 68.4422 25.8238 68.21 25.92C67.9402 26.0271 67.6518 26.08 67.3615 26.0757C67.0712 26.0714 66.7846 26.0098 66.5181 25.8947C66.2516 25.7795 66.0103 25.613 65.8082 25.4046C65.6061 25.1962 65.447 24.9499 65.34 24.68C63.9099 21.0695 62.8478 17.3239 62.17 13.5C61.5218 9.75923 61.2239 5.96614 61.28 2.17002ZM76 97.91C76.1903 97.3773 76.5776 96.9378 77.0821 96.6821C77.5866 96.4263 78.1701 96.3738 78.7122 96.5353C79.2543 96.6968 79.7139 97.06 79.9962 97.5501C80.2786 98.0403 80.3623 98.62 80.23 99.17L78.06 106.37C77.8698 106.903 77.4825 107.342 76.9779 107.598C76.4734 107.854 75.89 107.906 75.3479 107.745C74.8057 107.583 74.3462 107.22 74.0638 106.73C73.7814 106.24 73.6978 105.66 73.83 105.11L76 97.91ZM69.07 95.64C69.3472 95.1189 69.82 94.7292 70.3845 94.5566C70.949 94.3841 71.5589 94.4429 72.08 94.72C72.6012 94.9972 72.9909 95.47 73.1634 96.0345C73.3359 96.599 73.2772 97.2089 73 97.73L69.2 104.79C68.9091 105.28 68.4402 105.638 67.8913 105.791C67.3424 105.943 66.7559 105.878 66.2541 105.608C65.7523 105.338 65.3739 104.885 65.198 104.344C65.0221 103.802 65.0623 103.213 65.31 102.7L69.12 95.64H69.07ZM63.36 91.31C63.5521 91.081 63.7887 90.8936 64.0556 90.759C64.3225 90.6245 64.614 90.5458 64.9123 90.5277C65.2106 90.5096 65.5095 90.5524 65.7907 90.6536C66.0719 90.7548 66.3296 90.9123 66.5479 91.1163C66.7663 91.3204 66.9407 91.5668 67.0607 91.8405C67.1807 92.1143 67.2436 92.4096 67.2457 92.7084C67.2478 93.0073 67.1889 93.3034 67.0727 93.5788C66.9566 93.8542 66.7855 94.103 66.57 94.31L61.4 99.8C61.208 100.029 60.9713 100.216 60.7044 100.351C60.4375 100.486 60.146 100.564 59.8477 100.582C59.5494 100.6 59.2505 100.558 58.9693 100.456C58.6881 100.355 58.4305 100.198 58.2121 99.9937C57.9938 99.7896 57.8193 99.5432 57.6993 99.2695C57.5794 98.9958 57.5164 98.7005 57.5144 98.4016C57.5123 98.1028 57.5711 97.8066 57.6873 97.5313C57.8035 97.2559 57.9745 97.0071 58.19 96.8L63.36 91.31ZM51.7 3.50002C51.6563 2.91522 51.8466 2.33698 52.2292 1.89252C52.6118 1.44806 53.1552 1.17378 53.74 1.13002C54.3248 1.08626 54.9031 1.2766 55.3475 1.65918C55.792 2.04175 56.0663 2.58522 56.11 3.17002C58 27.62 66 36.25 72.46 43.26C80.18 51.6 85.97 57.87 79.39 81.26L83 93.16C83.1482 93.6407 83.1199 94.1584 82.92 94.62C82.683 95.1578 82.2433 95.5803 81.6966 95.7956C81.1498 96.011 80.5401 96.0018 80 95.77L66 90C65.5606 89.8407 65.1826 89.5467 64.92 89.16C64.7616 88.9216 64.6527 88.6539 64.5996 88.3727C64.5466 88.0914 64.5504 87.8024 64.611 87.5227C64.6716 87.2429 64.7877 86.9782 64.9525 86.7442C65.1172 86.5101 65.3272 86.3115 65.57 86.16L75.16 80C81.05 59 75.96 53.48 69.16 46.16C62.24 38.65 53.69 29.41 51.7 3.50002ZM75.84 84.72L71.46 87.52L77.46 90L75.86 84.72H75.84Z"/>
</mask>
<path d="M61.28 2.17002C61.288 1.58655 61.5274 1.03013 61.9456 0.623174C62.3638 0.21622 62.9265 -0.0079348 63.51 2.16979e-05C64.0935 0.00797819 64.6499 0.247394 65.0569 0.6656C65.4638 1.08381 65.688 1.64655 65.68 2.23002C65.6311 5.7519 65.9123 9.27062 66.52 12.74C66.9943 15.343 67.6628 17.9069 68.52 20.41C71.2034 18.6286 74.1684 17.3134 77.29 16.52C82.2766 15.2961 87.532 15.8185 92.18 18C96.8168 20.2335 100.834 23.5712 103.88 27.72C107.828 33.0123 110.653 39.0561 112.18 45.48C113.948 52.9497 114.622 60.6366 114.18 68.3C113.812 75.9574 112.33 83.5202 109.78 90.75C108.02 95.8291 105.538 100.628 102.41 105C99.6115 108.842 96.1303 112.137 92.14 114.72C91.54 115.1 90.88 115.5 90.14 115.9C81.9831 120.192 72.9617 122.585 63.75 122.9C53.75 123.16 44.3 120.46 39.2 112.56C38.98 112.23 38.76 111.85 38.53 111.44C37.93 110.36 37.43 109.32 36.94 108.28C35.62 105.49 34.26 102.63 31.27 100.14C30.2063 99.2368 28.9718 98.5566 27.64 98.14C26.2553 97.7352 24.8052 97.6028 23.37 97.75C18.84 98.17 16.37 100 14.05 101.75C12.2527 103.228 10.2031 104.37 8.00002 105.12C7.67364 105.227 7.33924 105.307 7.00002 105.36C6.66969 105.416 6.33506 105.443 6.00002 105.44C5.0665 105.461 4.14636 105.215 3.34755 104.732C2.54874 104.248 1.90437 103.547 1.49002 102.71C0.570231 100.844 0.0977423 98.7901 0.110023 96.71V96.63C0.110023 95.63 0.110023 95.22 0.110023 94.83C0.010023 91.11 -0.0299771 89.83 3.76002 86.44C4.28202 85.9326 4.82939 85.452 5.40002 85C6.00226 84.5557 6.62638 84.1419 7.27002 83.76C8.38329 83.104 9.53542 82.5162 10.72 82C11.88 81.48 13.16 81 14.55 80.47C24.14 77.01 29.79 78.92 35.13 80.73C38.32 81.81 41.38 82.85 45.13 82.34C48.88 81.83 51.95 79.11 54.3 75.54C57.1039 71.3479 58.5909 66.4134 58.57 61.37C58.2 54 55.39 47.92 52.25 41.14C48.34 32.69 44 23.26 42.78 8.92002L42.45 5.13002C42.4315 4.56292 42.6318 4.01042 43.0094 3.58694C43.3871 3.16346 43.9131 2.90146 44.4786 2.85519C45.0441 2.80892 45.6058 2.98193 46.0472 3.33839C46.4887 3.69485 46.7761 4.20745 46.85 4.77002L47.18 8.56002C48.31 22.13 52.5 31.18 56.18 39.25C59.5 46.43 62.48 52.87 62.89 61.11C62.935 67.0863 61.1939 72.9398 57.89 77.92C54.89 82.46 50.67 85.92 45.62 86.66C40.87 87.3 37.34 86.11 33.62 84.86C28.97 83.29 24.07 81.62 15.93 84.56C14.73 84.99 13.57 85.46 12.43 85.97C11.3993 86.4286 10.3974 86.9496 9.43002 87.53C8.89598 87.8356 8.37858 88.1694 7.88002 88.53C7.37002 88.9 6.88002 89.27 6.51002 89.63C4.23002 91.7 4.25002 92.43 4.31002 94.63C4.31002 95.33 4.31002 96.1 4.31002 96.56C4.27772 97.9361 4.55094 99.3022 5.11002 100.56C5.18714 100.723 5.31698 100.855 5.47851 100.935C5.64004 101.015 5.8238 101.038 6.00002 101H6.32002C6.46262 100.979 6.60313 100.945 6.74002 100.9C8.46975 100.268 10.0769 99.3409 11.49 98.16C14.29 96.09 17.28 93.88 23.04 93.35C25.033 93.1508 27.0458 93.3341 28.97 93.89C30.8695 94.4704 32.6316 95.4297 34.15 96.71C37.9 99.83 39.47 103.13 41 106.35C41.47 107.35 41.95 108.35 42.45 109.25C42.6 109.53 42.78 109.82 42.98 110.13C47.09 116.5 55.17 118.68 63.72 118.45C72.1956 118.154 80.495 115.949 88 112C88.59 111.67 89.17 111.32 89.74 111C93.2757 108.708 96.3602 105.786 98.84 102.38C101.708 98.3515 103.984 93.9334 105.6 89.26C107.999 82.4413 109.393 75.3101 109.74 68.09C110.17 60.8512 109.543 53.5883 107.88 46.53C106.499 40.7 103.94 35.2142 100.36 30.41C97.7569 26.8408 94.325 23.9581 90.36 22.01C86.5912 20.2336 82.3263 19.8064 78.28 20.8C74.8459 21.7141 71.6362 23.3241 68.85 25.53C68.658 25.6922 68.4422 25.8238 68.21 25.92C67.9402 26.0271 67.6518 26.08 67.3615 26.0757C67.0712 26.0714 66.7846 26.0098 66.5181 25.8947C66.2516 25.7795 66.0103 25.613 65.8082 25.4046C65.6061 25.1962 65.447 24.9499 65.34 24.68C63.9099 21.0695 62.8478 17.3239 62.17 13.5C61.5218 9.75923 61.2239 5.96614 61.28 2.17002ZM76 97.91C76.1903 97.3773 76.5776 96.9378 77.0821 96.6821C77.5866 96.4263 78.1701 96.3738 78.7122 96.5353C79.2543 96.6968 79.7139 97.06 79.9962 97.5501C80.2786 98.0403 80.3623 98.62 80.23 99.17L78.06 106.37C77.8698 106.903 77.4825 107.342 76.9779 107.598C76.4734 107.854 75.89 107.906 75.3479 107.745C74.8057 107.583 74.3462 107.22 74.0638 106.73C73.7814 106.24 73.6978 105.66 73.83 105.11L76 97.91ZM69.07 95.64C69.3472 95.1189 69.82 94.7292 70.3845 94.5566C70.949 94.3841 71.5589 94.4429 72.08 94.72C72.6012 94.9972 72.9909 95.47 73.1634 96.0345C73.3359 96.599 73.2772 97.2089 73 97.73L69.2 104.79C68.9091 105.28 68.4402 105.638 67.8913 105.791C67.3424 105.943 66.7559 105.878 66.2541 105.608C65.7523 105.338 65.3739 104.885 65.198 104.344C65.0221 103.802 65.0623 103.213 65.31 102.7L69.12 95.64H69.07ZM63.36 91.31C63.5521 91.081 63.7887 90.8936 64.0556 90.759C64.3225 90.6245 64.614 90.5458 64.9123 90.5277C65.2106 90.5096 65.5095 90.5524 65.7907 90.6536C66.0719 90.7548 66.3296 90.9123 66.5479 91.1163C66.7663 91.3204 66.9407 91.5668 67.0607 91.8405C67.1807 92.1143 67.2436 92.4096 67.2457 92.7084C67.2478 93.0073 67.1889 93.3034 67.0727 93.5788C66.9566 93.8542 66.7855 94.103 66.57 94.31L61.4 99.8C61.208 100.029 60.9713 100.216 60.7044 100.351C60.4375 100.486 60.146 100.564 59.8477 100.582C59.5494 100.6 59.2505 100.558 58.9693 100.456C58.6881 100.355 58.4305 100.198 58.2121 99.9937C57.9938 99.7896 57.8193 99.5432 57.6993 99.2695C57.5794 98.9958 57.5164 98.7005 57.5144 98.4016C57.5123 98.1028 57.5711 97.8066 57.6873 97.5313C57.8035 97.2559 57.9745 97.0071 58.19 96.8L63.36 91.31ZM51.7 3.50002C51.6563 2.91522 51.8466 2.33698 52.2292 1.89252C52.6118 1.44806 53.1552 1.17378 53.74 1.13002C54.3248 1.08626 54.9031 1.2766 55.3475 1.65918C55.792 2.04175 56.0663 2.58522 56.11 3.17002C58 27.62 66 36.25 72.46 43.26C80.18 51.6 85.97 57.87 79.39 81.26L83 93.16C83.1482 93.6407 83.1199 94.1584 82.92 94.62C82.683 95.1578 82.2433 95.5803 81.6966 95.7956C81.1498 96.011 80.5401 96.0018 80 95.77L66 90C65.5606 89.8407 65.1826 89.5467 64.92 89.16C64.7616 88.9216 64.6527 88.6539 64.5996 88.3727C64.5466 88.0914 64.5504 87.8024 64.611 87.5227C64.6716 87.2429 64.7877 86.9782 64.9525 86.7442C65.1172 86.5101 65.3272 86.3115 65.57 86.16L75.16 80C81.05 59 75.96 53.48 69.16 46.16C62.24 38.65 53.69 29.41 51.7 3.50002ZM75.84 84.72L71.46 87.52L77.46 90L75.86 84.72H75.84Z" fill="#00C9FF" stroke="white" stroke-width="3" mask="url(#path-1-inside-1_2_725)"/>
</svg>
