<svg width="100" height="125" viewBox="0 0 100 125" fill="none" xmlns="http://www.w3.org/2000/svg">
<path d="M57.814 61.515C57.814 65.3 53.226 69.355 49.998 69.355C46.77 69.355 42.184 65.3 42.184 61.515C42.184 59.849 43.356 57.806 45.529 57.304L57.814 61.515ZM57.814 61.515C57.815 59.849 56.644 57.806 54.47 57.302L57.814 61.515ZM45.6416 57.7912L45.6423 57.791C46.7475 57.5341 47.7362 57.7269 48.5184 57.9404L48.5229 57.9416C48.9729 58.0655 49.4251 58.19 50 58.19C50.574 58.19 51.0262 58.0655 51.4761 57.9416L51.4812 57.9402C51.4813 57.9402 51.4814 57.9402 51.4815 57.9401C52.2628 57.726 53.2528 57.534 54.3575 57.7892C56.2674 58.2321 57.3149 60.0412 57.314 61.5147V61.515C57.314 63.2178 56.2694 65.0561 54.7705 66.4935C53.2682 67.9342 51.432 68.855 49.998 68.855C48.5642 68.855 46.7285 67.9342 45.2267 66.4935C43.7283 65.0562 42.684 63.2179 42.684 61.515C42.684 60.0411 43.7327 58.2321 45.6416 57.7912ZM53.795 60.225C54.518 60.391 54.816 61.147 54.816 61.514L46.205 60.225C46.417 60.176 46.608 60.153 46.791 60.153C47.1291 60.153 47.4423 60.2375 47.8349 60.3435L47.859 60.35C48.41 60.502 49.095 60.69 50.001 60.69C50.907 60.69 51.592 60.502 52.143 60.35C52.762 60.182 53.188 60.086 53.795 60.225ZM46.791 59.653C46.565 59.653 46.3362 59.6815 46.0929 59.7377C45.5753 59.8569 45.2212 60.1871 45.0045 60.5231C44.7945 60.8487 44.685 61.2222 44.685 61.514C44.685 62.1688 44.9334 62.8271 45.2897 63.4245C45.6488 64.0267 46.1377 64.6009 46.669 65.0976C47.2006 65.5946 47.7873 66.0257 48.3521 66.3355C48.9038 66.6381 49.487 66.854 49.999 66.854C50.5112 66.854 51.0946 66.6383 51.6466 66.3357C52.2117 66.026 52.7987 65.595 53.3305 65.0981C53.8621 64.6015 54.3512 64.0273 54.7106 63.4251C55.0672 62.8276 55.3157 62.1692 55.316 61.5142V61.514C55.316 61.2225 55.207 60.849 54.9969 60.5231C54.7799 60.1867 54.4253 59.8567 53.9069 59.7377L53.9067 59.7376C53.172 59.5694 52.6436 59.6961 52.0121 59.8674L52.0101 59.868C51.4639 60.0187 50.8347 60.19 50.001 60.19C49.1674 60.19 48.5382 60.0187 47.992 59.868L47.9893 59.8673C47.9727 59.8628 47.9562 59.8583 47.9396 59.8538C47.5681 59.7534 47.1968 59.653 46.791 59.653ZM70.8537 31.9554L70.8538 31.9547C70.9599 31.411 71.4809 31.0588 72.0278 31.1656C72.5701 31.2725 72.923 31.7989 72.8165 32.3393L72.8164 32.3395C71.936 36.8181 69.7923 40.8722 67.0484 44.2624L66.978 44.3494L66.9514 44.4581C64.4954 54.4909 63.8889 65.7909 63.8807 65.9467L63.8807 65.9474C63.8533 66.4818 63.4116 66.897 62.884 66.897C62.8843 66.897 62.8831 66.897 62.8795 66.8969L62.8645 66.8964C62.8602 66.8962 62.8543 66.896 62.8474 66.8957C62.84 66.8955 62.8315 66.8953 62.8224 66.8951C62.2755 66.8615 61.8563 66.3934 61.8834 65.8458C61.9103 65.3166 62.3431 57.3393 63.9653 48.7892L64.2355 47.3647L63.1447 48.3198C58.6518 52.2534 53.611 54.522 50 54.522C46.389 54.522 41.3523 52.2564 36.8595 48.3218L35.7686 47.3665L36.0388 48.7912C37.6615 57.3459 38.0901 65.3214 38.1167 65.8463C38.1436 66.3937 37.7244 66.8615 37.1777 66.8951C37.161 66.8954 37.1463 66.8959 37.1372 66.8963L37.1356 66.8964L37.1206 66.8969C37.117 66.897 37.1158 66.897 37.116 66.897C36.5885 66.897 36.1467 66.4818 36.1194 65.9474L36.1194 65.9467C36.1111 65.7908 35.5016 54.4888 33.0457 44.4541L33.0191 44.3454L32.9487 44.2584C30.2058 40.8692 28.0631 36.8152 27.1837 32.3396L27.1836 32.3394C27.0771 31.7979 27.43 31.2718 27.9718 31.1647C28.5191 31.0594 29.0405 31.4121 29.1463 31.9538L29.1464 31.9544C30.2668 37.654 33.8117 42.7846 37.8739 46.4838C39.9079 48.336 42.0832 49.8404 44.1704 50.8839C46.2509 51.9241 48.2752 52.522 50 52.522C51.7248 52.522 53.7492 51.9241 55.8297 50.8839C57.9169 49.8404 60.0922 48.3361 62.1262 46.4839C66.1883 42.7849 69.7333 37.6545 70.8537 31.9554Z" fill="#00C9FF" stroke="white"/>
</svg>
