<?xml version="1.0" encoding="utf-8"?>
<!-- Generator: Adobe Illustrator 22.1.0, SVG Export Plug-In . SVG Version: 6.00 Build 0)  -->
<svg version="1.1" id="endo" xmlns="http://www.w3.org/2000/svg" xmlns:xlink="http://www.w3.org/1999/xlink" x="0px" y="0px"
	 viewBox="0 0 90 90" width="90" height="90" xml:space="preserve">
<style type="text/css">.fill-stroke{fill:none;stroke:url(#SVGID_1_);stroke-miterlimit:10;}</style><linearGradient id="SVGID_1_" gradientUnits="userSpaceOnUse" x1="59.6096" y1="64.8915" x2="24.952" y2="30.2339"><stop  offset="0" style="stop-color:#00C9FF"/><stop  offset="1" style="stop-color:#0382F3"/></linearGradient><g class="fill-stroke">
	<path d="M31.7,44.6c-0.6-9,8.5-12.2,1.1-17.5c-7-5-16.4,4.6-19.2,13.3s-1,19.9,10.2,19.6C36.6,59.8,32,47.5,31.7,44.6z"/>
	<path d="M32.4,44c0,0,9.9,1.5,9.9,20.3"/>
	<path d="M28.1,33.1c0.6,1.5,1,3.1,1.1,4.6"/>
	<path d="M28.1,48.1c-0.8,1.4-2,2.5-3.2,3.6"/>
	<path d="M22.8,41.9c1.5,0.3,3.1,0.8,4.6,1.5"/>
	<path d="M58.3,44.6c0.6-9-8.5-12.2-1.1-17.5c7-5,16.4,4.6,19.2,13.3c2.8,8.7,1,19.9-10.2,19.7C53.4,59.8,58,47.5,58.3,44.6z"/>
	<path d="M57.6,44c0,0-9.9,1.5-9.9,20.3"/>
	<path d="M61.9,33.1c-0.6,1.5-1,3.1-1.1,4.6"/>
	<path d="M62.1,48.1c0.8,1.4,2,2.5,3.2,3.6"/>
	<path d="M67.2,41.9c-1.5,0.3-3.1,0.8-4.6,1.5"/>
</g>
</svg>
