<svg xmlns="http://www.w3.org/2000/svg" version="1.0" width="421.000000pt" height="441.000000pt" viewBox="0 0 421.000000 441.000000" preserveAspectRatio="xMidYMid meet">

<g transform="translate(0.000000,441.000000) scale(0.100000,-0.100000)" fill="#3eb8d7" stroke="none">
<path d="M2032 3639 c-18 -5 -50 -27 -72 -49 -126 -126 -35 -340 145 -340 43 0 62 6 101 33 122 81 125 248 6 331 -46 33 -121 43 -180 25z m121 -81 c60 -32 84 -100 56 -160 -16 -36 -70 -68 -114 -68 -32 0 -45 7 -77 40 -47 51 -51 96 -12 147 39 51 98 67 147 41z" fill="#3eb8d7"/>
<path d="M2060 3490 c-11 -11 -20 -29 -20 -40 0 -25 34 -60 58 -60 32 0 62 29 62 60 0 53 -62 78 -100 40z" fill="#3eb8d7"/>
<path d="M2455 3637 c-16 -12 -17 -24 -12 -103 7 -110 27 -170 77 -227 49 -55 78 -68 280 -117 314 -78 358 -98 430 -194 45 -62 69 -112 93 -196 36 -126 39 -199 42 -785 2 -549 17 -908 43 -1049 8 -46 33 -67 60 -50 20 13 20 -4 -4 289 -13 170 -18 355 -19 810 -2 500 -5 605 -20 685 -32 185 -92 318 -178 397 -85 79 -131 97 -437 173 -90 22 -176 48 -190 57 -63 39 -91 100 -99 212 -5 69 -9 86 -27 97 -17 12 -23 12 -39 1z" fill="#3eb8d7"/>
<path d="M1696 3628 c-3 -7 -7 -44 -11 -81 -8 -95 -38 -170 -82 -206 -29 -24 -67 -37 -212 -72 -299 -71 -386 -109 -466 -201 -42 -49 -67 -95 -100 -183 -56 -148 -57 -159 -65 -880 -8 -621 -21 -924 -45 -1041 -8 -36 12 -57 47 -52 29 4 33 25 54 263 12 139 17 350 20 785 2 366 8 632 15 690 13 106 53 236 93 304 72 123 120 150 401 221 121 31 238 64 260 74 47 21 101 79 126 137 23 50 41 211 28 237 -11 20 -58 23 -63 5z" fill="#3eb8d7"/>
<path d="M1654 3175 c-75 -38 -99 -80 -99 -175 0 -65 4 -82 25 -113 67 -98 210 -113 300 -31 45 41 62 84 62 155 -1 73 -34 126 -101 161 -67 35 -121 36 -187 3z m154 -75 c65 -40 76 -120 26 -180 -45 -53 -125 -52 -176 2 -22 24 -28 39 -28 75 0 55 12 78 53 103 41 25 83 25 125 0z" fill="#3eb8d7"/>
<path d="M1707 3042 c-18 -19 -22 -59 -9 -79 4 -6 20 -15 35 -18 35 -9 67 17 67 56 0 53 -59 79 -93 41z" fill="#3eb8d7"/>
<path d="M2366 3177 c-22 -12 -53 -39 -70 -60 -41 -51 -49 -143 -17 -204 69 -136 255 -151 340 -27 33 48 43 100 30 161 -24 122 -176 192 -283 130z m162 -82 c43 -36 58 -77 44 -124 -23 -75 -93 -108 -165 -77 -29 11 -43 26 -57 59 -18 40 -18 49 -7 83 27 78 125 110 185 59z" fill="#3eb8d7"/>
<path d="M2422 3044 c-49 -34 -8 -115 51 -100 32 8 51 50 36 79 -22 40 -50 47 -87 21z" fill="#3eb8d7"/>
<path d="M1085 3001 c-80 -36 -122 -114 -112 -209 19 -179 264 -235 360 -81 54 88 45 177 -26 248 -61 62 -144 78 -222 42z m167 -100 c49 -55 49 -107 0 -162 -35 -40 -92 -48 -142 -21 -58 32 -77 100 -45 162 35 68 135 79 187 21z" fill="#3eb8d7"/>
<path d="M1130 2860 c-11 -11 -20 -29 -20 -40 0 -26 34 -60 60 -60 30 0 62 40 55 70 -12 50 -60 65 -95 30z" fill="#3eb8d7"/>
<path d="M2955 3002 c-52 -24 -101 -81 -115 -133 -28 -104 49 -225 157 -245 100 -19 203 45 227 140 23 91 0 157 -76 219 -48 38 -134 47 -193 19z m167 -101 c22 -25 28 -41 28 -79 0 -54 -18 -85 -60 -107 -66 -34 -144 -1 -169 70 -12 35 -11 45 2 77 34 82 142 103 199 39z" fill="#3eb8d7"/>
<path d="M2997 2862 c-35 -38 -9 -102 40 -102 47 0 71 71 35 103 -24 22 -55 21 -75 -1z" fill="#3eb8d7"/>
<path d="M1272 2542 c-18 -18 -19 -50 -25 -538 -7 -529 -21 -909 -37 -999 -10 -59 1 -85 36 -85 18 0 27 8 35 27 14 36 27 252 35 578 4 143 8 262 10 264 16 18 51 -151 60 -289 5 -84 -21 -417 -42 -536 -6 -36 13 -57 48 -52 29 4 31 15 59 305 21 224 22 235 6 360 -10 70 -42 241 -72 378 -54 248 -55 252 -55 417 0 156 -1 168 -20 178 -15 8 -24 6 -38 -8z" fill="#3eb8d7"/>
<path d="M2886 2544 c-13 -13 -16 -44 -16 -184 0 -149 -3 -183 -30 -301 -16 -74 -37 -170 -46 -214 -9 -44 -23 -107 -31 -140 -26 -105 -28 -335 -4 -564 12 -112 26 -210 32 -218 17 -19 57 -16 64 5 3 11 -4 101 -15 201 -25 218 -27 406 -6 516 24 128 28 145 36 145 4 0 10 -111 14 -247 9 -327 23 -549 37 -590 8 -25 16 -33 34 -33 35 0 42 22 34 98 -14 122 -28 561 -35 1040 -6 392 -9 476 -21 488 -18 18 -28 18 -47 -2z" fill="#3eb8d7"/>
<path d="M2066 2495 c-3 -9 -6 -142 -6 -295 0 -240 2 -281 16 -294 8 -9 21 -16 28 -16 34 0 36 25 34 321 l-3 294 -31 3 c-22 2 -33 -2 -38 -13z" fill="#3eb8d7"/>
<path d="M2071 1626 c-8 -9 -11 -58 -9 -151 3 -119 5 -139 21 -149 12 -8 22 -8 35 0 15 10 17 30 20 149 3 142 -3 165 -38 165 -10 0 -23 -6 -29 -14z" fill="#3eb8d7"/>
</g>
</svg>