<?xml version="1.0" encoding="utf-8"?>
<!-- Generator: Adobe Illustrator 22.1.0, SVG Export Plug-In . SVG Version: 6.00 Build 0)  -->
<svg version="1.1" id="gastro" xmlns="http://www.w3.org/2000/svg" xmlns:xlink="http://www.w3.org/1999/xlink" x="0px" y="0px"
	 viewBox="0 0 90 90" width="90" height="90" xml:space="preserve">
<style type="text/css">.fill-stroke{fill:none;stroke:url(#SVGID_1_);stroke-miterlimit:10;}</style><linearGradient id="SVGID_1_" gradientUnits="userSpaceOnUse" x1="59.6096" y1="64.8915" x2="24.952" y2="30.2339"><stop  offset="0" style="stop-color:#00C9FF"/><stop  offset="1" style="stop-color:#0382F3"/></linearGradient><g class="fill-stroke">
	<path d="M57,22.9c0,0-9.6,3-8.8,14.7c0.8,11.7-2.6,20.3-10.1,20.9S23.5,45,15,74.1h6c0,0,2.5-18.8,14.2-7.2c0,0,18.4,13.5,31-0.3
		S79.4,19.4,57,22.9z"/>
	<path d="M48.3,31.8c0.7-2.4,1.8-4.5,3.7-6c-0.8-0.1-1.6-0.5-2.4-0.9c-5-2.9-5.4-8.9-5.4-8.9l-6,2.4C38.9,25.7,47,31.1,48.3,31.8z"
		/>
</g>
</svg>
