<?xml version="1.0" encoding="utf-8"?>
<!-- Generator: Adobe Illustrator 22.1.0, SVG Export Plug-In . SVG Version: 6.00 Build 0)  -->
<svg version="1.1" id="gine" xmlns="http://www.w3.org/2000/svg" xmlns:xlink="http://www.w3.org/1999/xlink" x="0px" y="0px"
	 viewBox="0 0 90 90" width="90" height="90" xml:space="preserve">
<style type="text/css">.fill-stroke{fill:none;stroke:url(#SVGID_1_);stroke-miterlimit:10;}</style><linearGradient id="SVGID_1_" gradientUnits="userSpaceOnUse" x1="59.6096" y1="64.8915" x2="24.952" y2="30.2339"><stop  offset="0" style="stop-color:#00C9FF"/><stop  offset="1" style="stop-color:#0382F3"/></linearGradient><g class="fill-stroke">
<path d="M16.3,73l0.9,0.9c1.7,1.7,4.3,1.7,6,0l0,0l3.2-3.2l3,3c1.7,1.7,4.3,1.7,6,0l0,0l0.9-0.9c1.7-1.7,1.7-4.3,0-6l0,0l-3.4-3
	l4.9-4.9c10.1,6.8,23.7,4.7,31.5-4.7c8.5-10.1,7.1-25.4-3-33.8c-4.3-3.6-9.8-5.6-15.4-5.6c-13.1,0-24,10.7-24,24
	c0,4.7,1.3,9.2,3.9,13.1L26.2,57l-3-3c-1.7-1.7-4.3-1.7-6,0l0,0L16.3,55c-1.7,1.7-1.7,4.3,0,6l0,0l3,2.8L16.1,67
	C14.6,68.7,14.6,71.3,16.3,73L16.3,73z M51.2,53.3c-7.9,0-14.5-6.4-14.5-14.5s6.4-14.5,14.5-14.5s14.5,6.4,14.5,14.5
	c0,3.8-1.5,7.5-4.3,10.1C58.7,51.8,55,53.3,51.2,53.3z"/>
	</g>
</svg>
