<?xml version="1.0" encoding="utf-8"?>
<!-- Generator: Adobe Illustrator 22.1.0, SVG Export Plug-In . SVG Version: 6.00 Build 0)  -->
<svg version="1.1" id="psychologist" xmlns="http://www.w3.org/2000/svg" xmlns:xlink="http://www.w3.org/1999/xlink" x="0px"
	 y="0px" viewBox="0 0 90 90" width="90" height="90" xml:space="preserve">
<style type="text/css">.fill-stroke{fill:none;stroke:url(#SVGID_1_);stroke-miterlimit:10;}</style><linearGradient id="SVGID_1_" gradientUnits="userSpaceOnUse" x1="59.6096" y1="64.8915" x2="24.952" y2="30.2339"><stop  offset="0" style="stop-color:#00C9FF"/><stop  offset="1" style="stop-color:#0382F3"/></linearGradient><g class="fill-stroke">

	<g>
		<path d="M75.2,73.6v-8.4H37.5v8.4h-6.3V58.3L6.5,41.4l2.3-3.2c0.9-1.4,2.6-2.2,4.3-2.2c1,0,2.1,0.3,3,0.9l25,17.1
			c0.8,0.6,1.9,0.8,2.8,0.8h32.3c2.9,0,5.2,2.3,5.2,5.2v13.6C81.5,73.6,75.2,73.6,75.2,73.6z"/>
	</g>
	<g>
		<path d="M21.8,39c-1,0-2.2-0.3-3.1-0.8c-1.5-0.8-2.5-2.2-2.9-3.8c-0.4-1.6-0.2-3.4,0.6-4.7c1.2-1.9,3.2-3.1,5.4-3.1
			c1,0,2.2,0.3,3.1,0.8c1.5,0.8,2.5,2.2,2.9,3.8c0.4,1.6,0.2,3.4-0.6,4.7C26.1,37.7,24,39,21.8,39z"/>
	</g>
	<g>
		<path d="M44.9,54.7c-0.7,0-1.6-0.1-2.6-0.7l-13-8.8c-1.5-0.9-2.3-2.9-2.3-5c0-2.8,2.4-5.3,5.2-5.4h0.3c1,0,2.1,0.3,3,0.9l1,0.7
			l11.1,7.3h13.5l14.6,4.5c1.8,0.6,2.7,2.5,2.1,4.3c-0.5,1.4-1.8,2.3-3.2,2.3l0,0c-0.4,0-0.7-0.1-1.2-0.2l-12.2-4.3L49,54.4
			c-0.7,0.2-1.6,0.4-2.3,0.4L44.9,54.7z"/>
	</g>
	<path d="M36.2,42.7l9.7,6.6c1,0.6,1.3,1.4,1.4,2.2c0.1,0.9-0.5,3.1-2.6,3.2"/>
</g>
</svg>
