<?xml version="1.0" encoding="utf-8"?>
<!-- Generator: Adobe Illustrator 22.1.0, SVG Export Plug-In . SVG Version: 6.00 Build 0)  -->
<svg version="1.1" id="lor" xmlns="http://www.w3.org/2000/svg" xmlns:xlink="http://www.w3.org/1999/xlink" x="0px" y="0px"
	 viewBox="0 0 90 90" width="90" height="90" xml:space="preserve">
<style type="text/css">.fill-stroke{fill:none;stroke:url(#SVGID_1_);stroke-miterlimit:10;}</style><linearGradient id="SVGID_1_" gradientUnits="userSpaceOnUse" x1="59.6096" y1="64.8915" x2="24.952" y2="30.2339"><stop  offset="0" style="stop-color:#00C9FF"/><stop  offset="1" style="stop-color:#0382F3"/></linearGradient><g class="fill-stroke">

	<path d="M53.3,26C51,24,48,23,45,23c-7.1,0-12.9,5.8-12.9,12.9S37.9,48.8,45,48.8S57.9,43,57.9,35.9 M45,31.9
		c-2.2,0-4,1.8-4,4s1.8,4,4,4s4-1.8,4-4S47.2,31.9,45,31.9z M80,49.7v14.6c0,1.4-1.2,3.3-10.9,4.7c-6.5,1-15,1.5-24.1,1.5
		S27.3,70,20.9,69.1C11.2,67.6,10,65.8,10,64.3V49.7c0-1.7,2.1-3,6.9-4c3.5-0.8,8.2-1.4,13.7-1.7c-1.4-2.5-2.1-5.2-2.1-8.1
		c0-9.1,7.4-16.5,16.5-16.5s16.5,7.4,16.5,16.5c0,2.9-0.7,5.6-2.1,8.1c5.5,0.4,10.2,1,13.7,1.7C77.9,46.8,80,48,80,49.7z M71.8,47.8
		c-3.6-0.7-8.4-1.3-14-1.6c-2,2.5-4.7,4.3-7.6,5.3v2.1c0,0,12.2-0.3,22.1-2C82.3,49.9,71.8,47.8,71.8,47.8z M38.3,58v2.7l0,0l0,0
		v3.1c0,1.6,3,3,6.7,3s6.7-1.3,6.7-3v-3.1l0,0l0,0V58c-2.2,0.2-4.4,0.3-6.7,0.3S40.5,58.2,38.3,58z M26.3,57.4c-1,0-1.8,0.4-1.8,1
		v6.8c0,0.5,0.8,1,1.8,1c1,0,1.8-0.4,1.8-1v-6.8C28,57.9,27.2,57.4,26.3,57.4z M63.7,57.4c-1,0-1.8,0.4-1.8,1v6.8c0,0.5,0.8,1,1.8,1
		s1.8-0.4,1.8-1v-6.8C65.6,57.9,64.7,57.4,63.7,57.4z M17.7,51.6c9.9,1.7,22.1,2,22.1,2v-2.1c-2.9-1-5.6-2.8-7.6-5.3
		c-5.6,0.3-10.4,0.9-14,1.6C18.3,47.8,7.8,49.9,17.7,51.6z"/>
</g>
</svg>
