<?xml version="1.0" encoding="utf-8"?>
<!-- Generator: Adobe Illustrator 22.1.0, SVG Export Plug-In . SVG Version: 6.00 Build 0)  -->
<svg version="1.1" id="nervo" xmlns="http://www.w3.org/2000/svg" xmlns:xlink="http://www.w3.org/1999/xlink" x="0px" y="0px"
	 viewBox="0 0 90 90" width="90" height="90" xml:space="preserve">
<style type="text/css">.fill-stroke{fill:none;stroke:url(#SVGID_1_);stroke-miterlimit:10;}</style><linearGradient id="SVGID_1_" gradientUnits="userSpaceOnUse" x1="59.6096" y1="64.8915" x2="24.952" y2="30.2339"><stop  offset="0" style="stop-color:#00C9FF"/><stop  offset="1" style="stop-color:#0382F3"/></linearGradient><g class="fill-stroke">
	<path d="M66.3,45.2c-2.8-1.4-5.3-3.4-7-6.1"/>
	<path d="M56,45.5c0,0,20.7-3,18.3,11.8"/>
	<path d="M21.8,31.8c-0.9-2-0.8-4.4,0.5-6.2"/>
	<path d="M38.5,23.5c0,0-0.2-3,4.4-4.8"/>
	<path d="M73.3,55.7c-6.4-1.9-13.2-0.5-18.5,3.6"/>
	<path d="M30.2,57.3c0,0-5.1-8.9,9.9-9.8"/>
	<path d="M42.4,51.7c-0.2,2.2,1.2,4.2,3.4,4.7"/>
	<path d="M35.8,26.5c0,0-4.5-0.2-5.3,3.3"/>
	<path d="M33.2,42.8C33,45,34.4,47,36.6,47.5"/>
	<path d="M23.1,42.4c-3.9-0.8-7.8,2.6-7.8,5.1"/>
	<path d="M20,38c-0.2,2.2,1.2,4.2,3.4,4.7"/>
	<path d="M15.3,47.6c0,0-9.5-10.9,6.4-21.3c4.2-5.8,11.7-8.2,18.5-6.2c0,0,7.8-6.7,19.7,1.1l0.5,0.9c8.7,2.8,13.1,8.4,15.9,15.9
		c3,7.8,0,13.8-1.4,18.2c-4.7,13.2-19.4,8.9-19.7,9.3c-3.4,5.3,0.3,11,0.3,11h-4.5c0,0-2.8-5.3-4.5-9.8c-1.7-4.5-4-5-4-5
		c-6.4,3-7.1-2.6-16.5-4.4C18.3,55.9,15.3,52.6,15.3,47.6z"/>
	<path d="M60.4,22.1c0,0-11.3-3.1-11,7.1"/>
	<path d="M69.7,48.1"/>
	<path d="M74.5,35.5c-2-1.7-4.7-2.2-7.1-1.2"/>
	<path d="M40.2,30.7c0,1.9,1.2,3.6,3.1,3.9"/>
	<path d="M34.4,38.9c0,0,3.3-6.5,12.7-3.7"/>
</g>
</svg>
