<svg xmlns="http://www.w3.org/2000/svg" version="1.0" width="932.000000pt" height="920.000000pt" viewBox="0 0 932.000000 920.000000" preserveAspectRatio="xMidYMid meet">

<g transform="translate(0.000000,920.000000) scale(0.100000,-0.100000)" fill="#3eb8d7" stroke="none">
<path d="M4684 8768 c-41 -19 -44 -45 -44 -382 l0 -323 -124 -7 c-1223 -65 -2336 -808 -2876 -1921 -145 -299 -230 -564 -294 -915 -19 -106 -47 -370 -40 -381 3 -5 38 -9 78 -9 l73 0 13 123 c20 204 69 459 117 612 167 535 415 959 782 1338 483 499 1069 816 1751 946 140 27 347 51 443 51 l77 0 -2 -227 -3 -228 -45 -3 c-647 -38 -1217 -266 -1705 -681 -74 -64 -279 -275 -345 -356 -270 -332 -474 -762 -565 -1185 -20 -94 -55 -371 -49 -382 3 -4 38 -8 79 -8 l74 0 5 43 c40 342 89 537 203 807 382 904 1279 1542 2245 1597 l108 6 0 -126 0 -127 80 0 80 0 0 840 c0 594 -3 846 -11 863 -11 24 -48 48 -72 46 -7 0 -22 -5 -33 -11z" fill="#3eb8d7"/>
<path d="M4926 8053 c-9 -9 -7 -141 2 -147 4 -2 70 -12 147 -20 636 -74 1207 -311 1702 -709 164 -132 416 -392 545 -562 367 -487 585 -1044 648 -1655 7 -63 14 -118 17 -122 6 -12 141 -10 148 2 9 14 -22 280 -50 433 -185 1001 -817 1871 -1723 2371 -366 203 -800 343 -1207 390 -192 23 -223 25 -229 19z" fill="#3eb8d7"/>
<path d="M4925 7432 c-3 -3 -5 -38 -5 -78 l0 -73 33 -5 c17 -2 75 -9 127 -16 106 -12 244 -41 365 -75 711 -202 1312 -700 1639 -1358 155 -314 231 -577 271 -939 l6 -58 74 0 c41 0 76 3 79 8 2 4 -2 63 -10 132 -108 945 -702 1778 -1564 2194 -284 137 -582 225 -865 256 -55 6 -110 12 -122 14 -13 2 -25 1 -28 -2z" fill="#3eb8d7"/>
<path d="M4352 6680 c-19 -21 -35 -103 -63 -317 -7 -51 -16 -93 -21 -93 -5 0 -73 37 -151 81 -86 50 -153 82 -171 82 -35 0 -76 -42 -76 -78 0 -38 35 -67 190 -155 228 -130 214 -119 248 -207 17 -43 44 -109 61 -146 17 -38 31 -71 31 -74 0 -3 -37 -2 -82 2 -164 13 -314 -41 -428 -156 -102 -102 -160 -233 -160 -362 0 -31 -3 -58 -8 -61 -4 -2 -107 18 -229 46 l-222 51 -121 183 c-141 215 -162 232 -224 183 -48 -38 -38 -72 70 -237 54 -81 99 -154 101 -162 3 -10 -10 -23 -34 -36 -21 -12 -81 -44 -133 -73 -106 -58 -130 -80 -130 -123 0 -34 39 -78 71 -78 22 0 108 43 275 138 l90 51 227 -53 c125 -29 229 -55 233 -58 3 -4 -6 -26 -20 -50 -31 -53 -56 -147 -56 -208 0 -52 19 -129 45 -184 10 -21 14 -41 9 -45 -5 -5 -54 -25 -109 -46 -55 -21 -122 -46 -150 -57 -27 -11 -61 -23 -75 -28 -14 -4 -42 -15 -62 -24 -52 -22 -75 -20 -154 13 -38 17 -122 53 -187 80 -65 28 -131 51 -146 51 -36 0 -71 -38 -71 -76 0 -55 -2 -54 293 -177 53 -23 97 -46 97 -52 0 -7 -20 -79 -45 -161 -56 -183 -63 -225 -42 -258 21 -31 60 -40 96 -22 33 18 36 24 96 231 25 88 50 170 55 181 6 15 38 32 107 59 54 21 133 51 176 68 42 16 79 28 81 26 3 -2 -1 -39 -7 -82 -34 -235 109 -478 333 -568 30 -12 57 -24 59 -25 2 -2 -24 -37 -58 -78 l-61 -75 -176 -3 c-171 -3 -176 -4 -195 -27 -26 -31 -25 -83 2 -107 18 -16 42 -20 173 -24 l151 -5 10 -170 c6 -93 14 -178 19 -187 11 -23 61 -39 90 -28 50 19 57 42 51 195 -3 77 -8 163 -10 191 -5 51 -4 53 53 120 31 38 67 82 80 98 l23 29 37 -35 c92 -88 184 -122 316 -116 100 5 163 26 228 78 20 17 41 30 46 30 8 0 41 -79 87 -215 17 -50 17 -52 -4 -92 -11 -23 -29 -64 -40 -90 -10 -26 -30 -73 -44 -103 -13 -30 -34 -77 -46 -104 -34 -79 -26 -123 28 -146 26 -10 35 -10 62 6 25 16 42 44 92 161 34 79 65 143 69 143 4 0 39 -48 78 -106 87 -129 102 -144 140 -144 38 0 80 39 80 74 0 15 -47 96 -120 205 -110 166 -124 193 -175 332 -30 82 -56 157 -57 166 -2 11 13 20 57 32 33 10 70 23 82 29 19 10 29 9 60 -6 107 -54 258 -55 368 -3 142 66 236 212 237 368 0 29 5 53 11 53 5 0 61 -30 123 -66 l113 -66 36 -113 c19 -62 35 -116 35 -120 0 -4 14 -52 30 -106 33 -106 47 -123 104 -121 38 1 66 33 66 76 -1 17 -25 113 -54 213 l-52 183 20 18 c12 10 90 67 174 127 93 66 157 118 163 132 11 30 3 66 -21 88 -32 29 -71 21 -143 -29 -37 -26 -115 -81 -174 -122 -58 -41 -112 -74 -120 -74 -7 0 -30 11 -51 24 -20 13 -74 44 -119 71 -46 26 -85 51 -88 56 -3 4 10 32 29 61 57 87 81 176 81 298 0 65 -5 117 -13 137 -8 17 -11 36 -8 42 4 5 75 10 166 10 l161 2 164 -151 c182 -167 206 -180 249 -137 18 18 26 37 26 60 0 34 -31 69 -208 230 -28 26 -52 50 -52 52 0 3 64 37 143 76 78 39 150 78 160 87 28 24 23 86 -9 111 -15 12 -36 21 -47 21 -12 0 -107 -42 -211 -94 l-191 -94 -187 -8 -188 -7 0 64 c0 70 -25 170 -60 238 -22 44 -120 149 -175 187 l-29 21 124 82 124 83 170 -32 c94 -17 192 -35 218 -41 37 -9 52 -8 77 5 50 26 55 100 8 131 -13 8 -102 29 -198 46 -96 17 -177 34 -181 38 -4 4 10 73 32 154 22 82 40 157 40 168 0 34 -18 57 -56 69 -73 25 -89 -6 -183 -366 -10 -39 -18 -47 -147 -129 -75 -47 -140 -83 -144 -78 -4 4 -15 28 -24 52 -129 332 -582 439 -850 200 -30 -27 -58 -49 -63 -49 -4 0 -21 33 -37 73 -16 39 -45 109 -64 155 l-35 83 32 222 c37 262 38 286 11 315 -27 29 -82 30 -108 2z m715 -842 c104 -26 193 -100 245 -206 25 -50 32 -80 37 -149 l6 -87 66 -12 c215 -40 330 -220 274 -428 l-18 -66 25 -37 c65 -101 76 -255 25 -366 -30 -66 -105 -151 -159 -178 -20 -10 -39 -23 -42 -28 -4 -5 10 -40 31 -77 46 -84 51 -162 15 -235 -52 -107 -133 -154 -255 -148 -75 4 -80 7 -173 74 -21 15 -25 14 -73 -16 -72 -43 -131 -59 -226 -59 l-81 0 -22 -53 c-41 -99 -134 -162 -237 -161 -108 0 -195 58 -242 160 l-23 52 -93 4 c-78 4 -101 9 -152 35 -77 40 -146 112 -182 188 -25 53 -28 71 -28 160 0 91 3 105 30 158 17 33 49 81 72 109 l43 49 -44 37 c-24 20 -57 60 -73 87 -24 43 -28 61 -28 125 1 105 21 141 127 232 l28 23 -26 70 c-22 61 -25 82 -22 160 5 112 36 182 115 256 78 73 148 103 248 104 110 0 140 -8 233 -65 45 -27 83 -46 85 -42 3 4 10 25 17 47 59 185 195 292 373 294 32 1 79 -4 104 -11z" fill="#3eb8d7"/>
<path d="M4185 5437 c-16 -8 -43 -27 -58 -43 -130 -131 -55 -339 131 -361 162 -19 282 179 193 319 -45 70 -83 92 -166 96 -44 1 -81 -3 -100 -11z m119 -152 c37 -28 14 -95 -33 -95 -23 0 -51 31 -51 56 0 22 33 54 55 54 5 0 18 -7 29 -15z" fill="#3eb8d7"/>
<path d="M5230 5298 c-90 -46 -137 -148 -110 -243 49 -175 283 -206 384 -52 21 34 26 53 26 108 0 59 -4 72 -32 115 -62 90 -173 120 -268 72z m136 -163 c15 -23 15 -27 0 -50 -27 -40 -96 -25 -96 21 0 55 66 75 96 29z" fill="#3eb8d7"/>
<path d="M4568 5076 c-151 -54 -238 -175 -238 -332 0 -145 83 -267 220 -324 56 -24 204 -20 262 7 66 30 143 105 175 172 24 48 28 68 28 146 0 78 -4 97 -28 146 -36 75 -117 150 -190 177 -66 25 -171 29 -229 8z m158 -151 c130 -38 178 -199 89 -303 -64 -75 -194 -82 -271 -14 -54 47 -74 154 -41 218 20 38 80 92 110 98 12 3 31 7 42 9 11 3 20 5 21 6 0 0 23 -6 50 -14z" fill="#3eb8d7"/>
<path d="M5083 4502 c-98 -41 -173 -155 -173 -262 0 -149 126 -279 271 -280 75 0 139 23 194 72 71 62 90 106 90 208 0 68 -5 93 -22 126 -27 50 -85 108 -133 131 -51 25 -173 28 -227 5z m197 -178 c25 -29 30 -43 30 -84 0 -41 -5 -56 -29 -82 -27 -31 -34 -33 -91 -33 -59 0 -64 2 -91 35 -102 121 76 283 181 164z" fill="#3eb8d7"/>
<path d="M4086 4416 c-196 -73 -236 -324 -71 -450 86 -65 186 -70 282 -16 97 55 145 161 122 269 -6 31 -17 67 -24 81 -20 38 -75 87 -118 105 -55 23 -145 28 -191 11z m133 -160 c30 -16 51 -53 51 -92 0 -35 -59 -94 -95 -94 -92 0 -138 102 -76 169 33 35 73 41 120 17z" fill="#3eb8d7"/>
<path d="M435 4695 c-16 -15 -25 -36 -25 -55 0 -19 9 -40 25 -55 l24 -25 419 0 419 0 7 -124 c52 -980 541 -1903 1331 -2513 98 -75 287 -203 375 -252 469 -266 1000 -424 1503 -448 l127 -6 0 -324 c0 -270 3 -329 15 -353 27 -53 103 -53 130 0 13 25 15 137 15 870 l0 840 -80 0 -80 0 0 -130 c0 -71 -3 -130 -7 -130 -36 0 -316 33 -383 44 -516 91 -1026 358 -1400 735 -449 452 -727 1052 -765 1651 -3 52 -8 105 -11 118 -4 22 -4 22 126 22 l130 0 0 80 0 80 -935 0 -936 0 -24 -25z m1483 -195 c4 -91 32 -308 53 -418 131 -668 531 -1294 1089 -1704 318 -233 706 -407 1080 -483 111 -22 343 -53 445 -58 l50 -2 3 -233 2 -233 -82 6 c-46 4 -141 13 -213 21 -842 93 -1620 521 -2165 1192 -388 477 -632 1060 -704 1682 -12 102 -20 245 -17 283 1 4 103 6 229 5 l227 -3 3 -55z" fill="#3eb8d7"/>
<path d="M7110 4640 l0 -80 130 0 c72 0 130 -3 130 -7 0 -36 -33 -316 -44 -383 -91 -517 -355 -1020 -735 -1401 -435 -435 -988 -696 -1613 -764 l-58 -6 0 -74 c0 -41 4 -76 8 -79 12 -7 285 30 397 54 343 75 652 208 965 416 328 218 644 553 847 899 155 264 280 590 332 865 22 112 49 329 53 420 l3 55 230 0 230 0 -3 -80 c-21 -523 -197 -1092 -479 -1545 -42 -69 -81 -129 -85 -135 -5 -5 -38 -50 -75 -100 -107 -144 -196 -246 -354 -404 -86 -85 -98 -112 -69 -159 17 -28 25 -32 61 -32 40 0 47 5 154 113 126 127 201 212 301 342 72 94 179 248 208 300 9 17 30 53 47 80 84 140 190 374 264 580 102 287 185 726 185 983 l0 62 420 0 421 0 24 25 c16 15 25 36 25 55 0 19 -9 40 -25 55 l-24 25 -936 0 -935 0 0 -80z" fill="#3eb8d7"/>
<path d="M6595 1963 c-16 -9 -32 -19 -35 -22 -13 -18 -239 -152 -355 -211 -358 -184 -748 -298 -1160 -341 -60 -6 -113 -13 -117 -16 -12 -6 -10 -141 2 -148 15 -9 284 23 429 50 378 73 734 204 1071 396 99 56 255 160 272 182 32 40 19 90 -29 115 -28 15 -42 15 -78 -5z" fill="#3eb8d7"/>
</g>
</svg>