<?xml version="1.0" encoding="utf-8"?>
<!-- Generator: Adobe Illustrator 22.1.0, SVG Export Plug-In . SVG Version: 6.00 Build 0)  -->
<svg version="1.1" id="pediatric" xmlns="http://www.w3.org/2000/svg" xmlns:xlink="http://www.w3.org/1999/xlink" x="0px" y="0px"
	 viewBox="0 0 90 90" width="90" height="90" xml:space="preserve">
<style type="text/css">.fill-stroke{fill:none;stroke:url(#SVGID_1_);stroke-miterlimit:10;}</style><linearGradient id="SVGID_1_" gradientUnits="userSpaceOnUse" x1="59.6096" y1="64.8915" x2="24.952" y2="30.2339"><stop  offset="0" style="stop-color:#00C9FF"/><stop  offset="1" style="stop-color:#0382F3"/></linearGradient><g class="fill-stroke">
	<circle cx="45" cy="24.7" r="9"/>
	<path d="M66.6,48c-1.7-3-3.2-6-5-8c-1.1-1.2-2.4-2.2-4.2-2.8c-1-0.3-2-0.5-3.2-0.5l-16.9,0c-2.1,0-3.9,0.6-5.1,1.4
		c-3.8,2.3-5.8,7-7.9,11.3c-1.7,3.5-3.9,7.8-4.2,12.2c-0.3,4.5,1.6,8.3,4.2,10.6c3.1,2.8,10.4,5.9,16.5,5.6c3.6-0.2,6.8-1.6,7.9-4.1
		c1.5-3.5-1.5-5.8-4.1-6.1c-2.8-0.3-5.9,0-8.7-0.6c-1.3-0.3-2.5-0.6-3.5-1c-1.1-0.4-2.3-0.9-2.8-1.9c1.2-0.5,3.1-0.4,4.8-0.7
		c1.3-0.3,3.5-0.7,3.6-1.9c0.1-0.7-1-2.2-1.3-3c-1-2.5-1.4-7.1,2.5-6.4c2,0.4,2.6,2.7,3.6,4.3c2.4,3.9,5.2,7.1,11.6,6.4
		c-1.3,1.6-3.4,2.5-3.7,4.9c-0.4,3,2,4.4,4.6,4.5c5.1,0.1,8.5-3.3,11-6.1c1.9-2,3.7-4.8,3.7-8.6C70,53.9,68.2,50.8,66.6,48z
		 M53.2,60.3c-3.4,0-6.1-2.7-6.1-6.1s2.7-6.1,6.1-6.1s6.1,2.7,6.1,6.1S56.6,60.3,53.2,60.3z"/>
</g>
</svg>
