<svg xmlns="http://www.w3.org/2000/svg" version="1.0" width="787.000000pt" height="1078.000000pt" viewBox="0 0 787.000000 1078.000000" preserveAspectRatio="xMidYMid meet">

<g transform="translate(0.000000,1078.000000) scale(0.100000,-0.100000)" fill="#3eb8d7" stroke="none">
<path d="M3107 9633 c-3 -1143 -3 -1148 -25 -1243 -36 -155 -79 -277 -148 -415 -96 -196 -206 -336 -428 -545 -222 -210 -337 -482 -338 -800 -1 -149 8 -208 54 -350 189 -589 816 -911 1408 -725 73 24 160 62 275 124 40 21 150 21 190 0 254 -136 388 -174 615 -174 346 0 656 146 867 407 104 130 152 217 201 368 43 130 53 200 53 348 0 317 -116 593 -337 802 -197 186 -302 312 -390 468 -100 177 -159 345 -194 550 -19 108 -20 169 -20 1223 l0 1109 -170 0 -171 0 4 -1132 c3 -1013 5 -1144 20 -1233 50 -287 151 -549 302 -780 95 -146 169 -233 334 -395 149 -146 201 -219 245 -346 37 -106 49 -194 43 -313 -18 -350 -266 -644 -613 -727 -44 -11 -109 -17 -179 -16 -160 0 -257 29 -445 131 -81 44 -183 65 -294 59 -106 -6 -181 -30 -281 -87 -419 -241 -954 -53 -1133 399 -73 186 -69 421 12 605 45 102 113 190 223 292 347 321 562 719 640 1183 15 95 17 217 20 1233 l4 1127 -170 0 -170 0 -4 -1147z" fill="#3eb8d7"/>
<path d="M1013 6602 c-26 -62 -93 -254 -93 -266 0 -13 723 -280 741 -274 6 2 35 70 64 152 l52 147 -55 25 c-30 13 -56 24 -58 24 -4 0 -546 196 -607 219 -27 10 -29 9 -44 -27z" fill="#3eb8d7"/>
<path d="M6615 6510 c-192 -71 -359 -133 -371 -139 -21 -9 -21 -11 31 -158 31 -85 59 -149 67 -151 13 -2 220 70 601 211 75 27 137 56 137 62 0 23 -105 307 -112 304 -2 -1 -160 -59 -353 -129z" fill="#3eb8d7"/>
<path d="M774 5537 c-2 -7 -3 -82 -2 -167 l3 -155 400 0 400 0 0 165 0 165 -398 3 c-319 2 -399 0 -403 -11z" fill="#3eb8d7"/>
<path d="M6424 5537 c-2 -7 -3 -82 -2 -167 l3 -155 400 0 400 0 0 165 0 165 -398 3 c-319 2 -399 0 -403 -11z" fill="#3eb8d7"/>
<path d="M3120 5245 c-356 -56 -676 -288 -834 -604 -82 -163 -118 -315 -118 -501 -1 -324 113 -597 338 -810 222 -209 332 -349 428 -545 68 -138 112 -259 148 -415 22 -95 22 -99 25 -1232 l4 -1138 170 0 170 0 -4 1118 c-3 1005 -5 1127 -20 1222 -49 290 -157 568 -313 803 -91 136 -155 211 -315 367 -179 175 -237 268 -279 444 -63 259 16 538 205 731 261 266 659 315 985 120 97 -58 150 -70 295 -69 145 0 187 12 311 84 84 49 205 87 317 99 314 35 629 -135 776 -419 59 -114 82 -199 88 -326 13 -261 -72 -455 -284 -651 -346 -320 -560 -715 -640 -1178 -15 -89 -17 -220 -20 -1222 l-4 -1123 170 0 170 0 4 1142 3 1143 26 105 c103 404 236 622 572 940 167 159 277 360 320 590 20 105 21 321 1 420 -52 270 -190 498 -404 671 -229 185 -532 273 -820 240 -146 -17 -257 -51 -401 -123 -115 -58 -130 -63 -190 -63 -60 0 -75 5 -190 63 -234 116 -454 154 -690 117z" fill="#3eb8d7"/>
<path d="M1435 4624 c-110 -40 -271 -100 -357 -131 -87 -32 -158 -63 -158 -69 0 -12 67 -205 93 -266 l16 -38 93 34 c51 19 215 78 363 131 149 54 275 102 281 107 11 8 -17 94 -88 281 -6 15 -18 27 -27 26 -9 0 -106 -34 -216 -75z" fill="#3eb8d7"/>
<path d="M6322 4673 c-33 -85 -101 -277 -99 -278 36 -15 150 -57 292 -108 99 -36 212 -76 250 -90 39 -14 100 -37 138 -50 61 -23 68 -24 76 -9 15 29 101 271 101 285 0 9 -131 61 -363 145 -199 73 -367 132 -373 132 -7 0 -16 -12 -22 -27z" fill="#3eb8d7"/>
</g>
</svg>