<?xml version="1.0" encoding="utf-8"?>
<!-- Generator: Adobe Illustrator 22.1.0, SVG Export Plug-In . SVG Version: 6.00 Build 0)  -->
<svg version="1.1" id="therapist" xmlns="http://www.w3.org/2000/svg" xmlns:xlink="http://www.w3.org/1999/xlink" x="0px" y="0px"
	 viewBox="0 0 90 90" width="90" height="90" xml:space="preserve">
<style type="text/css">.fill-stroke{fill:none;stroke:url(#SVGID_1_);stroke-miterlimit:10;}</style><linearGradient id="SVGID_1_" gradientUnits="userSpaceOnUse" x1="59.6096" y1="64.8915" x2="24.952" y2="30.2339"><stop  offset="0" style="stop-color:#00C9FF"/><stop  offset="1" style="stop-color:#0382F3"/></linearGradient><g class="fill-stroke">
	<path d="M32.9,18.2c-2.4,0.8-4.4,2.4-5.4,4.6c-2.8,5.1,0,14.8,3,19.2S38.1,53.6,44.3,54c6.2,0.4,11.3-5.8,14.5-10.7
		c3.2-4.9,5.8-13,5.3-17.3c-0.1-3.8-3-7.1-6.7-7.8"/>
	<circle cx="35.7" cy="18.1" r="3.1"/>
	<circle cx="22" cy="68.8" r="4.1"/>
	<circle cx="54.1" cy="18.1" r="3.1"/>
	<path d="M32.9,45.3c3.5,2.3,7.6,3.6,11.8,3.5c6.4-0.4,11.7-2.6,12.7-3.7"/>
	<path d="M45.3,53.9c4.2,17.6-7.3,26.7-20.1,17.5"/>
</g>
</svg>
