<svg width="919" height="828" viewBox="0 0 919 828" fill="none" xmlns="http://www.w3.org/2000/svg">
<path d="M365.474 6.11639L365.464 6.12476L365.453 6.13303C364.842 6.62204 364.012 7.56316 363.234 8.7587C362.457 9.95291 361.925 11.1049 361.718 11.8907L361.707 11.9343L361.694 11.9776C361.528 12.548 361.323 13.7864 361.135 15.7617C360.954 17.6615 360.807 20.0338 360.695 22.7367C360.471 28.1382 360.392 34.7439 360.45 41.3024C360.508 47.8623 360.703 54.3304 361.02 59.4584C361.18 62.0267 361.367 64.2188 361.578 65.9011C361.684 66.7434 361.791 67.4207 361.895 67.9339C361.991 68.4094 362.06 68.6216 362.074 68.6623C362.076 68.6698 362.077 68.6715 362.075 68.6681L362.097 68.7171L362.116 68.7668C362.783 70.4335 364.161 72.1996 365.851 73.5481C367.603 74.9475 369.179 75.5 370.067 75.5C371.893 75.5 374.006 76.1465 375.892 76.8949C377.884 77.686 380.042 78.7643 382.094 79.9582C384.146 81.1522 386.162 82.503 387.858 83.8647C389.457 85.1485 391.059 86.6675 391.998 88.2596C392.939 89.7865 393.735 92.082 394.343 94.3124C394.985 96.6665 395.521 99.3378 395.809 101.791L395.811 101.802C397.793 119.131 404.677 132.445 415.521 141.458C426.393 150.495 441.6 155.5 460.733 155.5C476.503 155.5 488.867 152.482 498.514 146.464C508.126 140.468 515.368 131.291 520.552 118.364C520.908 117.47 521.398 115.302 521.936 111.582C522.456 107.989 522.983 103.264 523.513 97.5002C523.673 95.5257 524.136 93.3952 524.757 91.4963C525.347 89.6889 526.18 87.7819 527.251 86.3864C529.288 83.5138 533.095 80.8588 536.744 78.9737C540.43 77.0693 544.83 75.5 548.333 75.5C549.531 75.5 551.78 74.6017 554.121 72.6679C556.43 70.7618 557.912 68.6017 558.261 67.1267L558.288 67.0144L558.296 66.9857C558.296 66.9752 558.325 66.8136 558.364 66.4111C558.41 65.9184 558.455 65.2427 558.496 64.387C558.576 62.681 558.634 60.3811 558.667 57.641C558.733 52.168 558.7 45.0375 558.567 37.5958L558.567 37.5882L558.567 37.5806C558.365 22.5933 558.083 15.0097 557.047 10.7015C556.564 8.69275 555.988 7.74681 555.419 7.1463C554.797 6.48936 553.889 5.92509 552.107 5.1293L552.069 5.11249L552.032 5.0948C550.772 4.4964 550.055 4.24606 549.413 4.15465C548.828 4.07132 548.067 4.08897 546.758 4.45441C543.886 5.25621 539.456 7.38484 530.575 11.859C513.186 20.6206 499.142 26.9251 487.666 31.0442C476.222 35.1518 467.117 37.1667 459.667 37.1667C452.207 37.1667 442.897 35.0465 431.537 30.9784C420.132 26.8943 406.424 20.7586 390.097 12.5282C385.214 10.0869 380.414 7.85216 376.626 6.23581C374.727 5.42545 373.12 4.78653 371.902 4.35681C371.291 4.14105 370.819 3.99274 370.48 3.9026C370.359 3.87035 370.275 3.85091 370.222 3.83957C369.906 3.87006 369.234 4.01878 368.294 4.42708C367.288 4.86375 366.268 5.47105 365.474 6.11639ZM428.65 51.3742L428.687 51.3852L428.725 51.397C431.44 52.2581 434.459 53.1871 437.125 54.0034C437.702 54.1802 438.264 54.352 438.803 54.5168C440.735 55.1078 442.375 55.6094 443.381 55.9271C446.843 57.0034 453.528 57.4669 461.053 57.1858C468.475 56.9084 476.123 55.9309 481.35 54.4409C491.957 51.2581 503.243 47.3127 509.567 44.4737L509.58 44.4678L509.593 44.4621C511.267 43.7268 512.83 43.0374 514.286 42.3947C518.27 40.6374 521.46 39.2299 523.973 38.1906C525.695 37.4785 527.178 36.9061 528.436 36.499C529.654 36.105 530.875 35.794 532.01 35.7376C533.168 35.6801 534.72 35.87 536.001 37.035C537.22 38.1423 537.571 39.5786 537.699 40.5172C537.831 41.4826 537.804 42.5429 537.758 43.4911C537.737 43.9283 537.699 44.5267 537.66 45.1458C537.625 45.7111 537.588 46.2936 537.562 46.7864L537.562 46.7906C537.462 48.6086 537.365 50.1418 537.205 51.3887C537.047 52.6105 536.796 53.8682 536.231 54.9986C534.896 57.6674 532.412 58.438 530.613 58.9962L530.571 59.0094L530.546 59.0171L530.521 59.0244C528.764 59.5412 524.86 61.5682 521.867 63.5179C515.716 67.6636 511.46 72.1263 508.519 77.619C505.553 83.1581 503.796 89.9807 503.021 99.0322L503.02 99.0401C502.276 107.495 500.961 113.887 498.058 118.983C495.083 124.203 490.673 127.671 484.603 130.778C480.961 132.666 478.371 133.878 474.893 134.51C471.586 135.111 467.576 135.167 461.133 135.167C455.201 135.167 451.168 135.037 447.867 134.545C444.445 134.035 441.895 133.148 438.891 131.789L438.875 131.782L438.859 131.774C431.859 128.522 426.541 124.489 422.803 118.873C419.09 113.294 417.151 106.474 416.318 98.0233C415.674 91.9775 414.144 86.0648 412.425 82.7413L412.406 82.7061L412.389 82.6706C411.134 80.1037 407.989 75.8551 404.718 72.1239C403.113 70.2924 401.574 68.6967 400.345 67.5882C399.723 67.0272 399.251 66.6543 398.935 66.4437C398.933 66.442 398.93 66.4403 398.928 66.4386C398.467 66.3635 398.078 66.2331 397.804 66.1279C397.342 65.9505 396.903 65.7245 396.513 65.4928C395.785 65.0602 395.034 64.4941 394.381 63.8624C393.629 63.2541 390.952 61.4947 388.429 60.2933L388.364 60.2623L388.3 60.2287C388.164 60.1572 388.027 60.0854 387.888 60.0127C385.935 58.9912 383.67 57.8068 382.513 55.4005C381.916 54.1608 381.706 52.83 381.606 51.5325C381.506 50.2329 381.5 48.6317 381.5 46.7333C381.5 43.8657 381.623 41.55 382.035 39.8787C382.24 39.0476 382.6 38.0048 383.355 37.1243C384.248 36.0825 385.497 35.5 386.867 35.5C387.53 35.5 388.184 35.6779 388.473 35.7568C388.891 35.8713 389.373 36.0255 389.887 36.2016C390.921 36.556 392.24 37.0532 393.737 37.6453C396.738 38.832 400.577 40.4489 404.536 42.1932C412.491 45.6399 423.394 49.836 428.65 51.3742Z" fill="#00C9FF" stroke="white" stroke-width="7"/>
<path d="M372.02 211.955L372.034 211.958L372.049 211.961C376.173 212.739 380.676 214.844 384.372 217.302C387.942 219.677 391.467 222.849 392.884 226.155L392.894 226.178L392.903 226.201C393.498 227.647 394.153 230.155 394.749 232.82C395.365 235.576 395.979 238.78 396.457 241.783L396.459 241.801L396.462 241.818C399.983 265.458 416.267 283.417 439.868 289.609C444.526 290.77 452.282 291.434 460.274 291.45C468.287 291.466 476.023 290.831 480.643 289.615L480.65 289.613C495.292 285.794 505.25 279.275 513.396 268.372L513.4 268.367C518.479 261.595 521.292 253.354 522.856 239.799L522.857 239.791L522.858 239.783C523.266 236.385 523.776 233.015 524.273 230.289C524.522 228.928 524.771 227.701 525.009 226.699C525.224 225.79 525.489 224.799 525.814 224.085L525.866 223.969L525.927 223.857C527.545 220.892 530.66 218.199 533.92 216.2C537.233 214.168 541.196 212.545 544.94 212.064C549.015 211.507 551.884 210.465 553.836 209.109C555.707 207.809 556.888 206.12 557.48 203.85L557.49 203.811L557.501 203.772C557.636 203.302 557.819 202.177 557.994 200.302C558.162 198.509 558.305 196.249 558.42 193.657C558.651 188.477 558.767 182.081 558.767 175.667C558.767 169.252 558.651 162.856 558.42 157.676C558.305 155.084 558.162 152.824 557.994 151.032C557.819 149.156 557.636 148.032 557.501 147.562L557.494 147.534L557.486 147.507C556.984 145.634 555.621 143.662 553.735 142.14C551.9 140.659 549.929 139.889 548.37 139.836C548.334 139.845 548.287 139.857 548.227 139.873C547.96 139.946 547.576 140.069 547.066 140.254C546.051 140.621 544.704 141.171 543.106 141.872C539.922 143.269 535.892 145.201 531.812 147.306C517.713 154.625 504.246 160.688 492.415 165.066C480.654 169.417 470.298 172.183 462.477 172.756C454.753 173.412 444.776 171.493 432.72 167.379C420.579 163.236 406.011 156.753 388.996 147.977L388.987 147.973C380.311 143.466 375.294 141.186 371.885 140.371C370.269 139.984 369.21 139.98 368.412 140.131C367.626 140.279 366.833 140.625 365.803 141.337C364.603 142.184 363.832 142.951 363.24 143.908C362.627 144.901 362.074 146.315 361.64 148.629C360.745 153.395 360.5 161.043 360.5 174.6C360.5 181.415 360.666 188.195 360.913 193.59C361.037 196.288 361.18 198.621 361.332 200.426C361.485 202.255 361.629 203.314 361.718 203.705C362.907 207.768 366.454 210.953 372.02 211.955ZM537.833 189.533V191.808L535.755 192.732L528.581 195.92C520.011 199.902 511.819 207.394 507.68 215.062L507.672 215.078L507.663 215.093C505.218 219.519 504.204 223.598 503.013 234.173C502.206 242.102 501.101 248.042 499.08 252.721C496.984 257.573 493.98 260.902 489.77 263.759C483.037 268.347 473.842 270.899 464.625 271.493C455.393 272.087 445.711 270.745 437.922 267.106C431.02 263.899 425.922 260.287 422.394 255.035C418.897 249.828 417.211 243.4 416.32 235.107L416.318 235.089L416.316 235.072C415.673 228.445 414.47 223.345 412.506 218.965C410.553 214.607 407.769 210.789 403.745 206.828L403.735 206.818L403.725 206.808C400.671 203.754 394.858 199.577 391.025 197.592L383.457 193.875L381.5 192.914V190.733V183C381.5 180.832 381.604 178.749 381.767 177.106C381.848 176.29 381.948 175.53 382.069 174.898C382.128 174.586 382.204 174.247 382.303 173.922C382.37 173.704 382.561 173.085 383 172.5L383.3 172.1L383.7 171.8C384.439 171.245 385.204 171.089 385.608 171.033C386.064 170.969 386.485 170.979 386.813 171.004C387.472 171.054 388.159 171.201 388.792 171.375C390.083 171.729 391.598 172.319 393.099 173.069C395.654 174.347 402.75 177.504 409.018 180.171C441.687 193.606 459.8 195.882 482.115 190.147C490.41 187.942 508.848 181.1 519.11 176.366C522.339 174.818 524.952 173.591 527.001 172.802C528.034 172.405 529.029 172.077 529.962 171.879C530.872 171.686 531.942 171.568 533.035 171.781C534.237 172.015 535.323 172.623 536.138 173.616C536.881 174.52 537.238 175.549 537.435 176.4C537.809 178.016 537.833 180.099 537.833 182.2V189.533Z" fill="#00C9FF" stroke="white" stroke-width="7"/>
<mask id="path-3-inside-1_7_1928" fill="white">
<path d="M242.333 217.667C239.8 218.2 233.8 219.4 229 220.333C208.733 223.933 177 237.4 158.467 250.067C148.333 257 134.2 269.533 118.467 285.533C50.2 355 22.6 414.2 41.5333 450.867C43.5333 454.733 55.9333 467.8 61.6667 472.333C71.1333 479.533 99.5333 493.933 120.467 502.067C147.533 512.6 167.8 521.933 170.467 525.133C172.6 527.8 169.4 531 161 534.2C144.067 540.867 141 543.667 141 553.267C141 560.733 148.067 566.867 164.333 573C201.667 587.267 228.333 600.6 242.733 612.333C262.733 628.467 271 630.2 290.333 622.333C296.467 619.8 303.533 617.667 305.933 617.667C316.2 617.667 336.333 625.667 358.333 638.733C373.933 647.933 385.133 651 402.867 651C414.733 651 419.267 650.467 426.067 648.067C441.133 642.733 448.867 633.533 449.133 620.333C449.533 605.933 438.333 596.6 405 583.133C372.867 570.2 365.667 565.933 351.4 551.133C322.867 521.8 311.8 507 307.133 492.333C303 479.667 302.467 465.267 305.933 458.6C311.133 448.467 327.533 437.8 339.8 436.6C347.8 435.8 360.467 438.867 381 446.333C396.867 452.2 415.8 457.933 431.667 461.667C443.8 464.6 479.133 463.933 493.667 460.467C506.067 457.533 517 454.333 521.667 452.333C539.4 444.733 567.667 436.333 575.667 436.333C588.2 436.333 604.467 445.267 611.667 456.067C615.133 461.4 615.667 463.267 615.667 471.8C615.667 483.667 610.867 499.533 604.6 508.6C597.267 519.267 575.933 543.8 563.8 555.267C551.533 567.133 545.667 570.6 521 580.333C499.267 589 486.333 595.667 478.733 602.333C473 607.4 471.667 609.4 470.467 615.133C468.333 625 470.467 631.533 478.067 639C487.133 647.667 497.533 651 515.267 651C535.933 651 540.333 649.533 573 632.067C589.667 623.267 604.467 617.667 611.667 617.667C614.467 617.667 622.2 619.8 628.867 622.333C648.333 629.8 656.333 628.467 673.667 614.467C689.933 601.267 701.533 595.4 753 573.667C762.067 569.8 770.6 566.067 771.8 565.267C777.533 561.667 779.933 552.067 776.867 545.267C775.133 541.533 768.067 537.267 760.2 535.133C753.933 533.533 747.667 529 747.667 526.333C747.667 523.8 762.867 516.467 790.2 505.533C837.8 486.733 863.533 471.133 874.867 454.467C887.667 435.8 886.067 409.267 870.2 377.133C864.467 365.667 850.067 342.333 844.467 335.267C843.4 334.067 837.533 326.733 831.4 319C820.467 305.267 784.467 268.067 775.8 261.667C773.4 259.8 769.533 256.733 767.133 254.867C757.133 246.733 737.267 235.667 720.6 229.133C693.933 218.6 657.533 213.667 634.867 217.667C602.467 223.4 586.867 230.467 559 251.533C537.667 267.8 530.467 273.267 525.8 276.733C523.667 278.333 520.333 280.867 518.467 282.467C509.533 289.8 488.333 303 480.333 306.2C469.267 310.6 457.533 311.933 449.933 309.667C428.733 303.267 418.467 296.733 365 255C335 231.667 319.933 224.6 285.267 217.8C277.133 216.2 249.267 216.067 242.333 217.667ZM288.067 246.333C299.533 248.733 311.667 253 320.333 257.533C326.6 260.733 338.467 268.6 341.8 271.667C345 274.6 375.4 297.533 391.267 309.133C420.867 330.733 437.4 337.533 459.667 337.667C484.067 337.667 501.4 329.4 541.8 298.867C594.467 259 595.4 258.333 607.667 253.267C624.467 246.333 631.933 245 655 245C677.8 245 684.067 245.933 704.333 252.6C723.533 258.867 744.333 270.6 759.667 283.8C803.533 321.667 841.667 372.2 853 407.533C857.267 420.467 856.467 433.667 851.133 440.733C843.267 451 821.8 463.133 785.4 477.8C747.667 493 731.933 501.4 725.267 509.533C716.6 520.333 717.533 535.4 727.533 546.867C729.133 548.733 730.2 551 730.067 552.067C729.8 553.133 724.867 555.933 719 558.2C691.667 569.267 670.2 581.267 657.4 592.467C649.533 599.4 645.667 600.333 639.533 597.267C625.8 590.067 607.667 588.867 590.733 594.333C585 596.067 573.133 601.267 564.333 605.933C555.533 610.467 545 615.8 541 617.933C531.8 622.6 520.2 624.867 510.067 623.667C495.667 621.933 497.667 619.667 522.067 609.667C531.4 605.8 542.733 601 547.4 598.867C552.067 596.733 556.067 595 556.467 595C558.733 595 574.067 583.533 582.067 575.8C594.733 563.667 620.333 533.933 627.133 523.667C634.467 512.733 636.6 507.667 640.6 492.6C648.333 462.6 639.933 438.733 615.8 422.467C610.733 419.133 602.467 414.733 597.4 412.867C589.133 409.667 587.133 409.4 573 410.067C556.467 410.733 553.267 411.4 521.267 423.267C492.6 433.667 483.667 435.533 459.667 435.533C435.933 435.667 430.467 434.6 400.333 423.933C364.867 411.4 358.067 409.667 343.533 409.667C333.133 409.667 328.733 410.333 321.8 412.733C304.2 419.133 288.067 433.133 280.6 448.333C276.6 456.467 276.333 457.8 276.333 471.667C276.467 496.467 281.933 510.867 300.467 535C312.333 550.467 339.933 579.667 349.133 586.333C357.267 592.467 370.467 598.867 395.267 609C405.667 613.133 415.267 617.4 416.6 618.467C420.6 621.267 416.733 623.267 405.933 624.067C393.533 624.867 383.8 622.2 371 614.467C356.867 605.933 334.733 595.667 324.733 593C311.933 589.533 293.667 590.733 283.667 595.4C273.533 600.333 270.867 600.067 262.333 592.867C249.4 582.067 232.6 572.333 209 561.933C205.667 560.467 199.533 557.667 195.4 555.8C188.333 552.733 186.067 550.6 188.733 549.4C192.2 547.933 198.333 537.533 199.4 531.133C202.733 512.867 193.4 503.4 155 486.333C152.867 485.4 143.267 481.4 133.667 477.667C96.0667 462.6 75.2667 450.6 67.8 439.933C64.2 434.6 63.6667 432.733 63.6667 424.6C63.6667 404.067 78.8667 373.8 106.867 338.333C117.667 324.733 151.4 290.067 162.333 281.4C179.933 267.533 202.333 255.4 219 251C221.267 250.333 226.333 249 230.333 247.933C240.067 245.267 244.2 244.733 263 244.6C272.6 244.467 282.6 245.133 288.067 246.333Z"/>
</mask>
<path d="M242.333 217.667C239.8 218.2 233.8 219.4 229 220.333C208.733 223.933 177 237.4 158.467 250.067C148.333 257 134.2 269.533 118.467 285.533C50.2 355 22.6 414.2 41.5333 450.867C43.5333 454.733 55.9333 467.8 61.6667 472.333C71.1333 479.533 99.5333 493.933 120.467 502.067C147.533 512.6 167.8 521.933 170.467 525.133C172.6 527.8 169.4 531 161 534.2C144.067 540.867 141 543.667 141 553.267C141 560.733 148.067 566.867 164.333 573C201.667 587.267 228.333 600.6 242.733 612.333C262.733 628.467 271 630.2 290.333 622.333C296.467 619.8 303.533 617.667 305.933 617.667C316.2 617.667 336.333 625.667 358.333 638.733C373.933 647.933 385.133 651 402.867 651C414.733 651 419.267 650.467 426.067 648.067C441.133 642.733 448.867 633.533 449.133 620.333C449.533 605.933 438.333 596.6 405 583.133C372.867 570.2 365.667 565.933 351.4 551.133C322.867 521.8 311.8 507 307.133 492.333C303 479.667 302.467 465.267 305.933 458.6C311.133 448.467 327.533 437.8 339.8 436.6C347.8 435.8 360.467 438.867 381 446.333C396.867 452.2 415.8 457.933 431.667 461.667C443.8 464.6 479.133 463.933 493.667 460.467C506.067 457.533 517 454.333 521.667 452.333C539.4 444.733 567.667 436.333 575.667 436.333C588.2 436.333 604.467 445.267 611.667 456.067C615.133 461.4 615.667 463.267 615.667 471.8C615.667 483.667 610.867 499.533 604.6 508.6C597.267 519.267 575.933 543.8 563.8 555.267C551.533 567.133 545.667 570.6 521 580.333C499.267 589 486.333 595.667 478.733 602.333C473 607.4 471.667 609.4 470.467 615.133C468.333 625 470.467 631.533 478.067 639C487.133 647.667 497.533 651 515.267 651C535.933 651 540.333 649.533 573 632.067C589.667 623.267 604.467 617.667 611.667 617.667C614.467 617.667 622.2 619.8 628.867 622.333C648.333 629.8 656.333 628.467 673.667 614.467C689.933 601.267 701.533 595.4 753 573.667C762.067 569.8 770.6 566.067 771.8 565.267C777.533 561.667 779.933 552.067 776.867 545.267C775.133 541.533 768.067 537.267 760.2 535.133C753.933 533.533 747.667 529 747.667 526.333C747.667 523.8 762.867 516.467 790.2 505.533C837.8 486.733 863.533 471.133 874.867 454.467C887.667 435.8 886.067 409.267 870.2 377.133C864.467 365.667 850.067 342.333 844.467 335.267C843.4 334.067 837.533 326.733 831.4 319C820.467 305.267 784.467 268.067 775.8 261.667C773.4 259.8 769.533 256.733 767.133 254.867C757.133 246.733 737.267 235.667 720.6 229.133C693.933 218.6 657.533 213.667 634.867 217.667C602.467 223.4 586.867 230.467 559 251.533C537.667 267.8 530.467 273.267 525.8 276.733C523.667 278.333 520.333 280.867 518.467 282.467C509.533 289.8 488.333 303 480.333 306.2C469.267 310.6 457.533 311.933 449.933 309.667C428.733 303.267 418.467 296.733 365 255C335 231.667 319.933 224.6 285.267 217.8C277.133 216.2 249.267 216.067 242.333 217.667ZM288.067 246.333C299.533 248.733 311.667 253 320.333 257.533C326.6 260.733 338.467 268.6 341.8 271.667C345 274.6 375.4 297.533 391.267 309.133C420.867 330.733 437.4 337.533 459.667 337.667C484.067 337.667 501.4 329.4 541.8 298.867C594.467 259 595.4 258.333 607.667 253.267C624.467 246.333 631.933 245 655 245C677.8 245 684.067 245.933 704.333 252.6C723.533 258.867 744.333 270.6 759.667 283.8C803.533 321.667 841.667 372.2 853 407.533C857.267 420.467 856.467 433.667 851.133 440.733C843.267 451 821.8 463.133 785.4 477.8C747.667 493 731.933 501.4 725.267 509.533C716.6 520.333 717.533 535.4 727.533 546.867C729.133 548.733 730.2 551 730.067 552.067C729.8 553.133 724.867 555.933 719 558.2C691.667 569.267 670.2 581.267 657.4 592.467C649.533 599.4 645.667 600.333 639.533 597.267C625.8 590.067 607.667 588.867 590.733 594.333C585 596.067 573.133 601.267 564.333 605.933C555.533 610.467 545 615.8 541 617.933C531.8 622.6 520.2 624.867 510.067 623.667C495.667 621.933 497.667 619.667 522.067 609.667C531.4 605.8 542.733 601 547.4 598.867C552.067 596.733 556.067 595 556.467 595C558.733 595 574.067 583.533 582.067 575.8C594.733 563.667 620.333 533.933 627.133 523.667C634.467 512.733 636.6 507.667 640.6 492.6C648.333 462.6 639.933 438.733 615.8 422.467C610.733 419.133 602.467 414.733 597.4 412.867C589.133 409.667 587.133 409.4 573 410.067C556.467 410.733 553.267 411.4 521.267 423.267C492.6 433.667 483.667 435.533 459.667 435.533C435.933 435.667 430.467 434.6 400.333 423.933C364.867 411.4 358.067 409.667 343.533 409.667C333.133 409.667 328.733 410.333 321.8 412.733C304.2 419.133 288.067 433.133 280.6 448.333C276.6 456.467 276.333 457.8 276.333 471.667C276.467 496.467 281.933 510.867 300.467 535C312.333 550.467 339.933 579.667 349.133 586.333C357.267 592.467 370.467 598.867 395.267 609C405.667 613.133 415.267 617.4 416.6 618.467C420.6 621.267 416.733 623.267 405.933 624.067C393.533 624.867 383.8 622.2 371 614.467C356.867 605.933 334.733 595.667 324.733 593C311.933 589.533 293.667 590.733 283.667 595.4C273.533 600.333 270.867 600.067 262.333 592.867C249.4 582.067 232.6 572.333 209 561.933C205.667 560.467 199.533 557.667 195.4 555.8C188.333 552.733 186.067 550.6 188.733 549.4C192.2 547.933 198.333 537.533 199.4 531.133C202.733 512.867 193.4 503.4 155 486.333C152.867 485.4 143.267 481.4 133.667 477.667C96.0667 462.6 75.2667 450.6 67.8 439.933C64.2 434.6 63.6667 432.733 63.6667 424.6C63.6667 404.067 78.8667 373.8 106.867 338.333C117.667 324.733 151.4 290.067 162.333 281.4C179.933 267.533 202.333 255.4 219 251C221.267 250.333 226.333 249 230.333 247.933C240.067 245.267 244.2 244.733 263 244.6C272.6 244.467 282.6 245.133 288.067 246.333Z" fill="#00C9FF" stroke="white" stroke-width="14" mask="url(#path-3-inside-1_7_1928)"/>
<path d="M44.2611 576.282L44.255 576.285C40.7725 577.966 36.2655 581.404 34.3491 583.648C29.9617 588.973 24.0649 600.056 18.5513 612.943C13.0707 625.753 8.15214 639.911 5.61344 651.107L5.60973 651.124L5.60586 651.14C4.5028 655.797 3.89996 664.231 3.88341 672.257C3.87522 676.227 4.01078 679.987 4.27998 683.004C4.41478 684.514 4.57925 685.794 4.76495 686.799C4.9635 687.873 5.14471 688.393 5.21503 688.538L5.26983 688.65L5.31642 688.767C6.07292 690.658 7.49727 693.768 8.39724 695.568L8.42169 695.617L8.4446 695.667C8.62802 696.064 9.34802 697.14 10.8751 698.985C12.3146 700.723 14.2599 702.897 16.6159 705.402C21.3208 710.403 27.5652 716.615 34.4575 723.11C40.1818 728.427 43.9943 732.786 46.5952 738.793C49.1354 744.659 50.4079 751.851 51.6725 762.561C52.068 765.487 52.4726 768.534 52.8634 771.477C53.8001 778.531 54.6575 784.988 55.1191 787.758C55.786 791.759 56.9827 799.205 57.7848 804.416C58.2465 806.921 58.7686 809.626 59.2706 811.942C59.7996 814.382 60.2444 816.087 60.5164 816.767L60.5267 816.792L60.5365 816.818C61.2227 818.615 61.571 819.141 62.1108 819.548C62.7723 820.047 64.196 820.686 67.8397 821.201C75.1143 822.229 88.7774 822.498 115.994 822.967L115.999 822.967L164.442 823.876L167.178 821.629L167.2 821.611L167.221 821.594C169.817 819.529 170.753 818.157 171.148 816.131C171.626 813.674 171.36 809.983 170.213 803.037L170.213 803.032C167.051 783.728 165.532 764.729 165.65 748.541C165.767 732.49 167.493 718.766 171.115 710.291L171.116 710.288C172.243 707.659 173.55 705.49 175.52 703.4C177.433 701.369 179.867 699.526 183.073 697.412L183.109 697.388L183.145 697.365C191.064 692.416 195.473 690.709 212.775 686.149L212.778 686.148C234.061 680.561 241.294 676.41 246.243 669.16L246.254 669.143L246.266 669.126C248.051 666.576 249.059 662.674 248.984 658.378C248.91 654.107 247.771 649.923 245.808 646.922C241.652 640.595 234.103 633.142 224.362 625.717C214.67 618.329 203.005 611.119 190.812 605.219C179.221 599.623 172.24 597.643 166.346 598.574C160.518 599.495 154.953 603.399 146.598 612.083C144.082 614.736 141.612 617.14 139.621 618.903C138.632 619.779 137.712 620.542 136.935 621.105C136.553 621.383 136.138 621.662 135.723 621.887L135.708 621.895C135.455 622.034 134.598 622.5 133.533 622.5C132.871 622.5 132.175 622.336 131.766 622.235C131.242 622.105 130.628 621.926 129.959 621.717C128.615 621.295 126.91 620.703 125.005 620C121.192 618.594 116.461 616.701 111.995 614.739C110.317 614.009 108.698 613.112 107.493 611.823C106.151 610.387 105.5 608.658 105.5 606.733C105.5 598.212 100.12 589.573 89.1298 582.625L89.1195 582.619C73.2369 572.5 56.2873 570.448 44.2611 576.282ZM84.0465 801.513C83.5003 801.442 82.7049 801.326 82.052 801.083C81.1889 800.768 80.1459 800.318 79.2064 799.506C78.2008 798.636 77.5561 797.568 77.1171 796.38C76.3537 794.314 76.0321 791.276 75.6492 787.066C75.118 781.757 74.1972 774.419 73.5586 770.971L73.5566 770.96L73.5546 770.949C72.9051 767.312 71.7698 759.525 70.8606 753.288L70.7367 752.438L70.7328 752.411L70.7293 752.384C69.2105 740.697 67.5438 733.617 63.6879 726.808C59.7701 719.89 53.4582 713.006 42.0441 702.059L42.0357 702.051C37.225 697.406 33.467 693.73 30.6616 690.541C27.8447 687.338 25.8054 684.428 24.5842 681.259C22.135 674.903 23.3537 668.308 25.2964 658.206L25.2988 658.193L25.3014 658.18C27.8187 645.594 32.2252 631.773 37.0188 620.255C39.4167 614.493 41.9357 609.249 44.3968 604.99C46.8022 600.828 49.3365 597.278 51.8529 595.222L51.9089 595.177L51.9668 595.133C53.8556 593.717 55.8701 592.919 58.612 592.967C61.0233 593.01 63.9336 593.713 67.706 594.838C71.3754 595.87 76.2625 598.156 78.8851 600.007L78.9179 600.03L78.9501 600.054C80.7589 601.394 82.4855 602.792 83.4767 605C84.4086 607.077 84.5001 609.473 84.5001 612.2C84.5001 617.299 86.0985 621.226 90.1993 624.987C94.5192 628.95 101.659 632.759 112.913 637.063C125.884 641.995 132.682 643.85 138.145 643.053C143.406 642.286 148.034 638.949 156.289 630.895L156.299 630.886L156.436 630.752C159.486 627.799 161.968 625.395 164.13 623.692C166.353 621.942 168.613 620.618 171.271 620.264C173.932 619.909 176.455 620.597 179.049 621.708C181.57 622.788 184.576 624.461 188.266 626.514L188.435 626.608L188.457 626.621L188.479 626.633C195.542 630.697 200.273 633.449 203.344 635.305C204.875 636.23 206.035 636.958 206.88 637.529C207.534 637.971 208.273 638.494 208.817 639.064C208.825 639.071 208.837 639.081 208.853 639.095C208.933 639.163 209.111 639.317 209.426 639.577C209.866 639.941 210.47 640.432 211.199 641.014C212.658 642.178 214.597 643.69 216.7 645.267L216.722 645.283L216.743 645.299C218.882 646.955 220.926 648.686 222.506 650.144C223.293 650.87 223.997 651.557 224.55 652.152C224.826 652.448 225.094 652.753 225.326 653.051C225.516 653.294 225.849 653.741 226.084 654.288L226.131 654.398L226.17 654.51C226.611 655.77 226.861 657.615 225.648 659.415C224.681 660.848 223.11 661.701 221.684 662.315C218.711 663.594 213.512 664.961 205.155 666.936C186.231 671.603 173.173 677.674 164.156 686.209C155.209 694.677 149.895 705.9 147.115 721.598C146.767 723.637 146.5 728.262 146.353 734.53C146.209 740.702 146.184 748.215 146.267 755.845C146.434 771.212 147.037 786.7 147.929 792.756L147.931 792.77L147.933 792.783L148.733 798.516L149.289 802.5H145.267H115.933C107.767 802.5 99.9899 802.366 94.022 802.148C91.042 802.039 88.4858 801.907 86.5468 801.759C85.5806 801.684 84.7328 801.603 84.0465 801.513Z" fill="#00C9FF" stroke="white" stroke-width="7"/>
<path d="M812.83 611.03L812.437 612.968L810.574 613.631L802.707 616.431L802.689 616.437L802.671 616.443C798.542 617.863 793.884 619.756 792.386 620.487C791.402 621.05 790.343 621.516 789.402 621.849C788.557 622.148 787.374 622.5 786.333 622.5C785.604 622.5 785.036 622.281 784.826 622.196C784.543 622.082 784.293 621.95 784.101 621.841C783.714 621.62 783.307 621.344 782.918 621.062C782.126 620.488 781.149 619.702 780.068 618.785C777.894 616.938 775.133 614.415 772.289 611.638L772.274 611.623L772.259 611.608C766.395 605.744 762.642 602.545 759.317 600.744C756.184 599.048 753.251 598.5 748.733 598.5C743.702 598.5 740.571 599.393 730.532 604.28L730.522 604.285C703.396 617.385 683.641 632.258 674.15 646.051L674.136 646.071L674.122 646.092C667.105 655.983 669.415 669.089 679.096 675.835C685.237 679.881 691.962 682.566 709.322 686.939L709.334 686.942L709.345 686.945C730.982 692.555 742.623 698.734 747.898 709.906L747.903 709.914L747.907 709.923C751.375 717.376 753.099 730.158 753.383 745.251C753.67 760.515 752.488 778.673 749.797 797.235L749.796 797.243L749.795 797.25C748.683 804.7 747.961 809.98 747.986 813.871C748.01 817.733 748.779 819.382 749.821 820.342C751.038 821.463 753.417 822.409 758.452 822.933C763.378 823.446 770.079 823.5 779.267 823.5C792.96 823.5 815.581 823.101 829.399 822.569L829.41 822.569L829.421 822.569C841.942 822.165 848.008 821.934 851.471 821.421C853.126 821.176 853.929 820.898 854.454 820.634C854.995 820.362 855.452 820.007 856.407 819.185C857.354 818.312 857.994 817.557 858.601 816.309C859.272 814.932 859.956 812.842 860.726 809.207C862.273 801.915 863.986 789.356 866.995 766.026C867.869 759.036 868.815 753.111 869.771 748.433C870.71 743.839 871.707 740.192 872.759 737.926L872.768 737.906L872.778 737.885C873.769 735.82 875.729 733.086 877.967 730.373C880.253 727.602 883.022 724.624 885.81 722.043C902.803 705.986 908.849 699.065 912.259 692.124L912.264 692.112L912.27 692.101C913.888 688.865 914.593 687.119 914.976 684.676C915.388 682.036 915.434 678.516 915.367 671.701V671.701C915.238 658.518 911.909 642.166 906.553 626.428C901.198 610.688 893.92 595.871 886.096 585.671C876.82 573.662 861.477 569.752 843.502 576.033C833.557 579.604 826.828 583.866 820.441 590.375C818.596 592.283 817.527 593.715 816.729 595.352C815.905 597.04 815.276 599.133 814.561 602.51C814.56 602.515 814.559 602.519 814.558 602.524L812.83 611.03ZM864.141 593.744L864.163 593.75L864.184 593.756C866.658 594.428 868.768 596.459 870.456 598.52C872.261 600.725 874.091 603.608 875.884 606.891C879.48 613.474 883.143 622.061 886.332 631.046C889.524 640.04 892.28 649.542 894.031 657.978C895.748 666.251 896.607 673.987 895.646 679.215C895.07 682.467 893.389 685.205 889.567 689.508C885.747 693.807 879.341 700.141 868.644 710.572L868.631 710.585L868.618 710.597C861.266 717.624 856.752 723.353 853.64 730.469C850.492 737.67 848.669 746.539 847.145 760.059L847.144 760.07L847.142 760.081C845.74 771.837 844.43 781.185 843.245 787.755C842.654 791.028 842.08 793.695 841.519 795.654C841.242 796.625 840.939 797.523 840.599 798.27C840.428 798.643 840.215 799.055 839.944 799.446C839.703 799.793 839.282 800.326 838.625 800.745C838.033 801.126 837.437 801.272 837.261 801.316L837.245 801.32C836.928 801.398 836.593 801.455 836.283 801.501C835.652 801.592 834.859 801.668 833.963 801.734C832.157 801.867 829.707 801.973 826.808 802.049C821.002 802.2 813.257 802.233 804.957 802.1C804.952 802.1 804.948 802.1 804.944 802.1L774.969 801.833L771.343 801.801L771.504 798.178L771.77 792.178L771.771 792.166L771.771 792.153C774.714 735.037 773.399 717.666 766.479 702.311C764.596 698.185 760.787 692.667 756.945 688.128C755.037 685.874 753.208 683.964 751.707 682.651C750.951 681.99 750.351 681.545 749.923 681.286C749.815 681.221 749.733 681.176 749.675 681.147C748.931 681.076 748.289 680.824 748.005 680.711C747.515 680.516 746.991 680.264 746.482 679.995C745.464 679.457 744.304 678.745 743.249 677.993C740.749 676.253 736.288 674.113 730.584 671.998C724.934 669.904 718.285 667.915 711.571 666.416L711.559 666.413L711.546 666.41C707.996 665.591 704.508 664.634 701.716 663.755C700.322 663.316 699.072 662.888 698.058 662.495C697.162 662.149 696.119 661.709 695.393 661.201L695.346 661.168L695.3 661.133C694.805 660.762 693.856 660.049 693.254 659.006C692.899 658.393 692.645 657.646 692.626 656.793C692.608 655.967 692.815 655.249 693.068 654.679C693.525 653.651 694.301 652.745 694.994 652.005C695.745 651.202 696.738 650.249 697.93 649.122L697.944 649.11L697.957 649.097C703.557 643.918 714.17 636.604 723.926 630.646C728.836 627.648 733.621 624.937 737.559 622.963C739.523 621.978 741.328 621.15 742.861 620.561C744.246 620.028 745.869 619.5 747.267 619.5C748.521 619.5 749.683 619.919 750.619 620.376C751.598 620.854 752.605 621.511 753.617 622.279C755.638 623.814 757.955 626.003 760.489 628.742C766.342 634.926 770.187 638.364 773.673 640.311C776.969 642.151 780.14 642.762 784.955 642.7L784.978 642.7H785C791.491 642.7 794.97 641.854 807.392 636.701L807.4 636.697L807.408 636.694C818.793 632.034 825.655 628.332 829.694 624.559C833.453 621.048 834.833 617.417 834.833 612.2C834.833 608.216 835.437 604.666 838.136 601.719C840.609 599.019 844.461 597.291 849.44 595.565C853.252 594.208 855.769 593.354 857.882 593.079C860.28 592.768 862.061 593.207 864.141 593.744ZM749.568 681.099C749.568 681.099 749.571 681.1 749.577 681.102C749.571 681.1 749.568 681.099 749.568 681.099Z" fill="#00C9FF" stroke="white" stroke-width="7"/>
</svg>
