<?xml version="1.0" encoding="utf-8"?>
<!-- Generator: Adobe Illustrator 22.1.0, SVG Export Plug-In . SVG Version: 6.00 Build 0)  -->
<svg version="1.1" id="uro" xmlns="http://www.w3.org/2000/svg" xmlns:xlink="http://www.w3.org/1999/xlink" x="0px" y="0px"
	 viewBox="0 0 90 90" width="90" height="90" xml:space="preserve">
<style type="text/css">.fill-stroke{fill:none;stroke:url(#SVGID_1_);stroke-miterlimit:10;}</style><linearGradient id="SVGID_1_" gradientUnits="userSpaceOnUse" x1="59.6096" y1="64.8915" x2="24.952" y2="30.2339"><stop  offset="0" style="stop-color:#00C9FF"/><stop  offset="1" style="stop-color:#0382F3"/></linearGradient><g class="fill-stroke">
	<path d="M37.8,28.6C25,28.6,14.5,39,14.5,51.9S25,75.2,37.8,75.2s23.3-10.5,23.3-23.3c0-4.4-1.3-8.8-3.7-12.5l8.4-8.4v5.5
		c0,2.4,1.8,4.4,4.4,4.6c0,0,0,0,0.2,0h0.6c2.4,0,4.4-2,4.4-4.4l0,0V14.8H53.8c-2.4,0-4.4,2-4.4,4.4c0,0,0,0,0,0.2V20
		c0,2.4,2,4.4,4.4,4.4l0,0h5.5l-8.4,8.4C47,30,42.4,28.6,37.8,28.6z M40.6,65.6c-7.5,1.5-15-3.5-16.5-11c-1.5-7.5,3.5-15,11-16.5
		c7.5-1.5,15,3.5,16.5,11c0.4,1.8,0.4,3.7,0,5.5C50.5,60.1,46.3,64.5,40.6,65.6L40.6,65.6z"/>
</g>
</svg>
