<?xml version="1.0" encoding="utf-8"?>
<!-- Generator: Adobe Illustrator 22.1.0, SVG Export Plug-In . SVG Version: 6.00 Build 0)  -->
<svg version="1.1" id="uzi" xmlns="http://www.w3.org/2000/svg" xmlns:xlink="http://www.w3.org/1999/xlink" x="0px"
	 y="0px" viewBox="0 0 90 90" width="90" height="90" xml:space="preserve">
<style type="text/css">.fill-stroke{fill:none;stroke:url(#SVGID_1_);stroke-miterlimit:10;}</style><linearGradient id="SVGID_1_" gradientUnits="userSpaceOnUse" x1="59.6096" y1="64.8915" x2="24.952" y2="30.2339"><stop  offset="0" style="stop-color:#00C9FF"/><stop  offset="1" style="stop-color:#0382F3"/></linearGradient><g class="fill-stroke">
	<line x1="40.1" y1="29.1" x2="63" y2="52"/>
	<path d="M56.9,35.2c-6.3-6.3-13.9-9-16.9-6c-2.1,2.1-1.4,6.4,1.4,11c0,0,0,0.1,0,0.1L25.5,56.2c-1.9,1.9-1.9,4.9,0,6.8
	l0,0c0,0,0,0.1,0,0.1c-0.1,0.1-0.2,0.3-0.2,0.5v2.4c0,0.4,0.4,0.8,0.8,0.8h2.4c0.2,0,0.4-0.1,0.5-0.2c0,0,0.1,0,0.1,0l0.1,0.1
	c1.9,1.9,4.9,1.9,6.8,0l15.9-15.9c0,0,0.1,0,0.1,0c4.6,2.8,8.9,3.5,11,1.4C65.9,49.1,63.2,41.5,56.9,35.2z"/>
	<path d="M25.5,66.5c0,0-0.2,3-7.8,3.8C9.4,71.3,10,76.3,10,78"/>
	<path d="M49.2,24.6c9.3,0,17,7,18.2,16"/>
	<path d="M49.2,18.8c1-0.1,2-0.2,3-0.2c11.8,0,21.3,9.5,21.3,21.3c0,0.2,0,0.4,0,0.7"/>
	<path d="M49.2,12.8c2-0.5,4.1-0.8,6.3-0.8c13.6,0,24.6,11,24.6,24.6c0,1.3-0.1,2.7-0.3,3.9"/>
</g>
</svg>
